<svg width="61" height="61" viewBox="0 0 61 61" fill="none" xmlns="http://www.w3.org/2000/svg">
<g clip-path="url(#clip0_14_2)">
<path fill-rule="evenodd" clip-rule="evenodd" d="M13.5046 30.029C13.5046 28.1236 13.821 26.297 14.3858 24.5836L4.49982 17.0343C2.57309 20.9463 1.48755 25.3543 1.48755 30.029C1.48755 34.6996 2.57175 39.105 4.49582 43.0143L14.3765 35.4503C13.817 33.745 13.5046 31.925 13.5046 30.029Z" fill="#FBBC05"/>
<path fill-rule="evenodd" clip-rule="evenodd" d="M30.8625 12.6956C35.0017 12.6956 38.7404 14.1623 41.6779 16.5623L50.2233 8.02895C45.016 3.49562 38.3398 0.695618 30.8625 0.695618C19.2541 0.695618 9.27726 7.33428 4.49982 17.0343L14.3858 24.5836C16.6637 17.669 23.1569 12.6956 30.8625 12.6956Z" fill="#EB4335"/>
<path fill-rule="evenodd" clip-rule="evenodd" d="M30.8625 47.3623C23.1569 47.3623 16.6637 42.3889 14.3858 35.4743L4.49982 43.0223C9.27726 52.7236 19.2541 59.3623 30.8625 59.3623C38.0274 59.3623 44.8677 56.8183 50.0017 52.0516L40.6177 44.7969C37.97 46.4649 34.6359 47.3623 30.8625 47.3623Z" fill="#34A853"/>
<path fill-rule="evenodd" clip-rule="evenodd" d="M58.9023 30.029C58.9023 28.2956 58.6353 26.429 58.2347 24.6956H30.8625V36.0289H46.6182C45.8304 39.893 43.6861 42.8636 40.6177 44.797L50.0017 52.0516C55.3947 47.0463 58.9023 39.5903 58.9023 30.029Z" fill="#4285F4"/>
</g>
<defs>
<clipPath id="clip0_14_2">
<rect width="60" height="60" fill="white" transform="translate(0.595459 0.0289917)"/>
</clipPath>
</defs>
</svg>
