<svg width="240" height="240" viewBox="0 0 240 240" fill="none" xmlns="http://www.w3.org/2000/svg">
<path d="M40.1934 121.947L41.0625 121.986C42.3255 121.986 43.3672 121.57 44.1875 120.736C45.0208 119.896 45.457 118.809 45.4961 117.475C45.5677 115.417 44.5781 114.027 42.5273 113.305C41.7591 113.031 40.7598 112.895 39.5293 112.895H38.709V126H33.7285V112.182H37.4688C39.487 112.182 40.7044 112.211 41.1211 112.27C41.5378 112.328 41.9707 112.403 42.4199 112.494C42.8757 112.585 43.3639 112.784 43.8848 113.09C44.4121 113.396 44.8581 113.76 45.2227 114.184C45.9583 115.043 46.3132 116.052 46.2871 117.211C46.248 118.689 45.8151 119.919 44.9883 120.902C44.1484 121.892 42.9896 122.504 41.5117 122.738C41.082 122.797 40.7435 122.826 40.4961 122.826C39.9102 122.826 39.6172 122.667 39.6172 122.348C39.6172 122.23 39.6693 122.136 39.7734 122.064C39.8776 121.986 40.0176 121.947 40.1934 121.947ZM49.3867 112.182H54.3672V126H49.3867V112.182ZM59.5371 124.604L59.5664 125.58C59.5664 125.749 59.5208 125.88 59.4297 125.971C59.3385 126.062 59.2279 126.107 59.0977 126.107C58.974 126.107 58.8698 126.065 58.7852 125.98C58.7005 125.896 58.6582 125.805 58.6582 125.707C58.6582 125.603 58.6647 125.508 58.6777 125.424C58.6973 125.333 58.7135 125.232 58.7266 125.121C58.7591 124.932 58.7754 124.46 58.7754 123.705V111.557L69.3906 119.975V114.154C69.3906 113.712 69.3776 113.396 69.3516 113.207C69.319 112.901 69.3027 112.686 69.3027 112.562C69.3027 112.237 69.4427 112.074 69.7227 112.074C69.8333 112.074 69.9375 112.113 70.0352 112.191C70.1393 112.27 70.1914 112.383 70.1914 112.533V112.875L70.1523 114.291V126.537L59.5371 118.207V124.604ZM74.6582 112.182H79.6387V116.225L83.1152 113.598C83.6035 113.227 83.9583 112.924 84.1797 112.689C84.401 112.455 84.5378 112.315 84.5898 112.27C84.6484 112.217 84.7005 112.178 84.7461 112.152C84.8242 112.1 84.9219 112.074 85.0391 112.074C85.1628 112.074 85.2604 112.11 85.332 112.182C85.4036 112.247 85.4395 112.322 85.4395 112.406C85.4395 112.484 85.4297 112.553 85.4102 112.611C85.3906 112.663 85.3516 112.725 85.293 112.797C85.1628 112.953 84.9154 113.171 84.5508 113.451L82.3633 115.111L86.0254 124.066C86.097 124.236 86.1654 124.385 86.2305 124.516L86.3867 124.867L86.5625 125.199C86.6081 125.29 86.6471 125.378 86.6797 125.463C86.7122 125.548 86.7253 125.629 86.7188 125.707C86.7122 125.785 86.6895 125.857 86.6504 125.922C86.5592 126.065 86.4486 126.137 86.3184 126.137C86.1361 126.137 85.9993 126.085 85.9082 125.98C85.791 125.837 85.7031 125.678 85.6445 125.502L85.4688 124.955C85.4102 124.773 85.332 124.555 85.2344 124.301L81.6895 115.619L79.6387 117.172V126H74.6582V112.182ZM95.3105 112.182C97.0684 112.182 98.4648 112.182 99.5 112.182C100.542 112.182 101.173 112.185 101.395 112.191C102.358 112.237 103.038 112.351 103.436 112.533C103.833 112.709 104.148 112.908 104.383 113.129C104.884 113.624 105.135 114.223 105.135 114.926C105.135 115.622 104.891 116.234 104.402 116.762C104.253 116.924 104.08 117.064 103.885 117.182C104.946 117.377 105.815 117.823 106.492 118.52C107.228 119.275 107.596 120.196 107.596 121.283C107.596 122.39 107.254 123.344 106.57 124.145C105.613 125.251 104.135 125.857 102.137 125.961C101.629 125.987 101.128 126 100.633 126H95.3105V112.182ZM101.717 116.986L102.215 117.045H102.371C102.885 117.045 103.331 116.856 103.709 116.479C104.113 116.075 104.314 115.58 104.314 114.994C104.314 114.278 104.005 113.728 103.387 113.344C103.074 113.148 102.762 113.035 102.449 113.002C102.143 112.963 101.902 112.937 101.727 112.924C101.362 112.898 100.883 112.885 100.291 112.885V125.277H101.375C102.482 125.277 103.383 125.141 104.08 124.867C104.913 124.581 105.574 124.118 106.062 123.48C106.525 122.875 106.756 122.24 106.756 121.576C106.756 120.912 106.658 120.352 106.463 119.896C106.268 119.441 105.984 119.053 105.613 118.734C104.858 118.077 103.807 117.748 102.459 117.748L101.785 117.807C101.577 117.807 101.424 117.764 101.326 117.68C101.229 117.595 101.18 117.497 101.18 117.387C101.18 117.12 101.359 116.986 101.717 116.986ZM112.443 124.242C111.799 123.611 111.285 122.849 110.9 121.957C110.523 121.059 110.334 120.082 110.334 119.027C110.334 117.966 110.513 117.016 110.871 116.176C111.236 115.329 111.737 114.597 112.375 113.979C113.742 112.663 115.458 112.006 117.521 112.006C119.572 112.006 121.252 112.654 122.561 113.949C123.889 115.264 124.553 116.97 124.553 119.066C124.553 121.156 123.872 122.875 122.512 124.223C121.659 125.056 120.611 125.632 119.367 125.951C118.749 126.107 118.029 126.186 117.209 126.186C116.395 126.186 115.559 126.02 114.699 125.688C113.84 125.349 113.088 124.867 112.443 124.242ZM117.512 112.719C117.154 112.719 116.818 112.745 116.506 112.797V125.395C116.805 125.447 117.141 125.473 117.512 125.473C119.25 125.473 120.715 124.893 121.906 123.734C123.15 122.53 123.771 120.974 123.771 119.066C123.771 117.25 123.189 115.74 122.023 114.535C120.845 113.324 119.341 112.719 117.512 112.719ZM129.791 124.242C129.146 123.611 128.632 122.849 128.248 121.957C127.87 121.059 127.682 120.082 127.682 119.027C127.682 117.966 127.861 117.016 128.219 116.176C128.583 115.329 129.085 114.597 129.723 113.979C131.09 112.663 132.805 112.006 134.869 112.006C136.92 112.006 138.6 112.654 139.908 113.949C141.236 115.264 141.9 116.97 141.9 119.066C141.9 121.156 141.22 122.875 139.859 124.223C139.007 125.056 137.958 125.632 136.715 125.951C136.096 126.107 135.377 126.186 134.557 126.186C133.743 126.186 132.906 126.02 132.047 125.688C131.188 125.349 130.436 124.867 129.791 124.242ZM134.859 112.719C134.501 112.719 134.166 112.745 133.854 112.797V125.395C134.153 125.447 134.488 125.473 134.859 125.473C136.598 125.473 138.062 124.893 139.254 123.734C140.497 122.53 141.119 120.974 141.119 119.066C141.119 117.25 140.536 115.74 139.371 114.535C138.193 113.324 136.689 112.719 134.859 112.719ZM145.693 112.182H150.674V116.225L154.15 113.598C154.639 113.227 154.993 112.924 155.215 112.689C155.436 112.455 155.573 112.315 155.625 112.27C155.684 112.217 155.736 112.178 155.781 112.152C155.859 112.1 155.957 112.074 156.074 112.074C156.198 112.074 156.296 112.11 156.367 112.182C156.439 112.247 156.475 112.322 156.475 112.406C156.475 112.484 156.465 112.553 156.445 112.611C156.426 112.663 156.387 112.725 156.328 112.797C156.198 112.953 155.951 113.171 155.586 113.451L153.398 115.111L157.061 124.066C157.132 124.236 157.201 124.385 157.266 124.516L157.422 124.867L157.598 125.199C157.643 125.29 157.682 125.378 157.715 125.463C157.747 125.548 157.76 125.629 157.754 125.707C157.747 125.785 157.725 125.857 157.686 125.922C157.594 126.065 157.484 126.137 157.354 126.137C157.171 126.137 157.035 126.085 156.943 125.98C156.826 125.837 156.738 125.678 156.68 125.502L156.504 124.955C156.445 124.773 156.367 124.555 156.27 124.301L152.725 115.619L150.674 117.172V126H145.693V112.182ZM168.787 124.262C167.596 124.262 166.782 124.252 166.346 124.232L166.062 124.906C165.978 125.095 165.9 125.294 165.828 125.502C165.678 125.906 165.47 126.107 165.203 126.107C165.079 126.107 164.979 126.068 164.9 125.99C164.822 125.912 164.783 125.831 164.783 125.746C164.783 125.603 164.845 125.443 164.969 125.268C165.164 124.994 165.356 124.636 165.545 124.193C164.985 124.141 164.705 123.979 164.705 123.705C164.705 123.432 164.865 123.295 165.184 123.295C165.379 123.295 165.607 123.327 165.867 123.393L170.74 111.557L177.42 126H172.332L171.521 124.262H168.787ZM166.658 123.471C167.283 123.523 167.843 123.549 168.338 123.549H171.199L168.758 118.285L166.658 123.471ZM187.053 121.947L187.922 121.986C189.185 121.986 190.227 121.57 191.047 120.736C191.88 119.896 192.316 118.809 192.355 117.475C192.427 115.417 191.438 114.027 189.387 113.305C188.618 113.031 187.619 112.895 186.389 112.895H185.568V126H180.588V112.182H184.328C186.346 112.182 187.564 112.211 187.98 112.27C188.397 112.328 188.83 112.403 189.279 112.494C189.735 112.585 190.223 112.784 190.744 113.09C191.271 113.396 191.717 113.76 192.082 114.184C192.818 115.043 193.173 116.052 193.146 117.211C193.107 118.689 192.674 119.919 191.848 120.902C191.008 121.892 189.849 122.504 188.371 122.738C187.941 122.797 187.603 122.826 187.355 122.826C186.77 122.826 186.477 122.667 186.477 122.348C186.477 122.23 186.529 122.136 186.633 122.064C186.737 121.986 186.877 121.947 187.053 121.947ZM202.877 121.947L203.746 121.986C205.009 121.986 206.051 121.57 206.871 120.736C207.704 119.896 208.141 118.809 208.18 117.475C208.251 115.417 207.262 114.027 205.211 113.305C204.443 113.031 203.443 112.895 202.213 112.895H201.393V126H196.412V112.182H200.152C202.171 112.182 203.388 112.211 203.805 112.27C204.221 112.328 204.654 112.403 205.104 112.494C205.559 112.585 206.048 112.784 206.568 113.09C207.096 113.396 207.542 113.76 207.906 114.184C208.642 115.043 208.997 116.052 208.971 117.211C208.932 118.689 208.499 119.919 207.672 120.902C206.832 121.892 205.673 122.504 204.195 122.738C203.766 122.797 203.427 122.826 203.18 122.826C202.594 122.826 202.301 122.667 202.301 122.348C202.301 122.23 202.353 122.136 202.457 122.064C202.561 121.986 202.701 121.947 202.877 121.947Z" fill="#402B3A"/>
</svg>
