<svg width="750" height="500" viewBox="0 0 750 500" fill="none" xmlns="http://www.w3.org/2000/svg">
<path d="M647.729 165.936C647.729 165.936 536.024 58.965 388.347 55.178C240.67 51.391 196.177 123.337 109.086 171.616C21.995 219.895 -6.40502 325.92 61.754 397.865C129.913 469.81 361.528 420.857 430.317 430.187C499.106 439.518 636.37 487.797 679.916 390.292C723.461 292.787 691.275 210.429 647.729 165.936Z" fill="#FF9BD2"/>
<path opacity="0.7" d="M647.729 165.936C647.729 165.936 536.024 58.965 388.347 55.178C240.67 51.391 196.177 123.337 109.086 171.616C21.995 219.895 -6.40502 325.92 61.754 397.865C129.913 469.81 361.528 420.857 430.317 430.187C499.106 439.518 636.37 487.797 679.916 390.292C723.461 292.787 691.275 210.429 647.729 165.936Z" fill="white"/>
<g opacity="0.3">
<path d="M201.824 339.763H196.18V414.997H201.824V339.763Z" stroke="black" stroke-miterlimit="10" stroke-linecap="round" stroke-linejoin="round"/>
<path d="M201.824 422.53H196.18V467.668H201.824V422.53Z" stroke="black" stroke-miterlimit="10" stroke-linecap="round" stroke-linejoin="round"/>
<path d="M201.822 332.234H44.75V339.758H201.822V332.234Z" stroke="black" stroke-miterlimit="10" stroke-linecap="round" stroke-linejoin="round"/>
<path d="M201.823 414.997H44.749V422.53H201.823V414.997Z" stroke="black" stroke-miterlimit="10" stroke-linecap="round" stroke-linejoin="round"/>
<path d="M50.393 339.763H44.749V414.997H50.393V339.763Z" stroke="black" stroke-miterlimit="10" stroke-linecap="round" stroke-linejoin="round"/>
<path d="M50.393 422.53H44.749V467.668H50.393V422.53Z" stroke="black" stroke-miterlimit="10" stroke-linecap="round" stroke-linejoin="round"/>
<path d="M88.949 339.763H83.305V414.997H88.949V339.763Z" stroke="black" stroke-miterlimit="10" stroke-linecap="round" stroke-linejoin="round"/>
<path d="M88.949 422.53H83.305V467.668H88.949V422.53Z" stroke="black" stroke-miterlimit="10" stroke-linecap="round" stroke-linejoin="round"/>
<path d="M156.866 339.763H151.222V414.997H156.866V339.763Z" stroke="black" stroke-miterlimit="10" stroke-linecap="round" stroke-linejoin="round"/>
<path d="M156.866 422.53H151.222V467.668H156.866V422.53Z" stroke="black" stroke-miterlimit="10" stroke-linecap="round" stroke-linejoin="round"/>
<path d="M71.514 311.532H61.436V332.125H71.514V311.532Z" stroke="black" stroke-miterlimit="10" stroke-linecap="round" stroke-linejoin="round"/>
<path d="M69.237 303.323H63.84V311.418H69.237V303.323Z" stroke="black" stroke-miterlimit="10" stroke-linecap="round" stroke-linejoin="round"/>
<path d="M122.021 313.695C122.021 313.695 111.977 313.934 103.34 313.04C93.94 312.067 84.495 307.966 79.421 317.751C74.347 327.536 79.059 331.522 81.233 331.885C83.407 332.247 83.407 332.247 83.407 332.247H149.727C152.054 331.44 173.313 334.929 174.873 327.087C176.899 316.903 172.391 312.072 163.872 312.499C154.292 312.979 130.935 315.373 122.021 313.695Z" stroke="black" stroke-miterlimit="10" stroke-linecap="round" stroke-linejoin="round"/>
<path d="M88.779 328.045C88.779 328.045 78.256 325.893 86.627 323.74C90.447 322.758 114.847 325.892 132.066 327.327C132.066 327.327 145.698 327.805 149.285 328.044C152.872 328.283 161.004 328.283 155.981 329.479C150.959 330.675 133.261 329.24 133.261 329.24" stroke="black" stroke-miterlimit="10" stroke-linecap="round" stroke-linejoin="round"/>
<path d="M114.866 392.817H93.939V415.025H114.866V392.817Z" stroke="black" stroke-miterlimit="10" stroke-linecap="round" stroke-linejoin="round"/>
<path d="M114.866 392.817H93.939V399.021H114.866V392.817Z" stroke="black" stroke-miterlimit="10" stroke-linecap="round" stroke-linejoin="round"/>
<path d="M140.918 382.342H119.991V415.025H140.918V382.342Z" stroke="black" stroke-miterlimit="10" stroke-linecap="round" stroke-linejoin="round"/>
<path d="M140.918 382.342H119.991V388.546H140.918V382.342Z" stroke="black" stroke-miterlimit="10" stroke-linecap="round" stroke-linejoin="round"/>
</g>
<g opacity="0.3">
<path d="M84.852 260.345L74.255 270.942H192.746V261.307" fill="white"/>
<path d="M84.852 260.345L74.255 270.942H192.746V261.307" stroke="black" stroke-miterlimit="10" stroke-linecap="round" stroke-linejoin="round"/>
<path d="M84.852 248.081L74.255 258.677H192.746V249.043" fill="white"/>
<path d="M84.852 248.081L74.255 258.677H192.746V249.043" stroke="black" stroke-miterlimit="10" stroke-linecap="round" stroke-linejoin="round"/>
<path d="M84.852 235.816L74.255 246.413H192.746V236.778" fill="white"/>
<path d="M84.852 235.816L74.255 246.413H192.746V236.778" stroke="black" stroke-miterlimit="10" stroke-linecap="round" stroke-linejoin="round"/>
<path d="M84.852 223.552L74.255 234.149H192.746V224.514" fill="white"/>
<path d="M84.852 223.552L74.255 234.149H192.746V224.514" stroke="black" stroke-miterlimit="10" stroke-linecap="round" stroke-linejoin="round"/>
<path d="M84.852 211.287L74.255 221.884H192.746V212.249" fill="white"/>
<path d="M84.852 211.287L74.255 221.884H192.746V212.249" stroke="black" stroke-miterlimit="10" stroke-linecap="round" stroke-linejoin="round"/>
<path d="M84.852 199.023L74.255 209.62H192.746V199.985" fill="white"/>
<path d="M84.852 199.023L74.255 209.62H192.746V199.985" stroke="black" stroke-miterlimit="10" stroke-linecap="round" stroke-linejoin="round"/>
<path d="M84.852 186.758L74.255 197.355H192.746V187.72" fill="white"/>
<path d="M84.852 186.758L74.255 197.355H192.746V187.72" stroke="black" stroke-miterlimit="10" stroke-linecap="round" stroke-linejoin="round"/>
<path d="M84.852 174.494L74.255 185.091H192.746V175.456" fill="white"/>
<path d="M84.852 174.494L74.255 185.091H192.746V175.456" stroke="black" stroke-miterlimit="10" stroke-linecap="round" stroke-linejoin="round"/>
<path d="M84.852 162.229L74.255 172.826H192.746V163.191" fill="white"/>
<path d="M84.852 162.229L74.255 172.826H192.746V163.191" stroke="black" stroke-miterlimit="10" stroke-linecap="round" stroke-linejoin="round"/>
<path d="M84.852 149.965L74.255 160.562H192.746V150.927" fill="white"/>
<path d="M84.852 149.965L74.255 160.562H192.746V150.927" stroke="black" stroke-miterlimit="10" stroke-linecap="round" stroke-linejoin="round"/>
<path d="M84.852 137.701L74.255 148.297H192.746V138.662" fill="white"/>
<path d="M84.852 137.701L74.255 148.297H192.746V138.662" stroke="black" stroke-miterlimit="10" stroke-linecap="round" stroke-linejoin="round"/>
<path d="M84.852 125.436L74.255 136.033H192.746V126.398" fill="white"/>
<path d="M84.852 125.436L74.255 136.033H192.746V126.398" stroke="black" stroke-miterlimit="10" stroke-linecap="round" stroke-linejoin="round"/>
<path d="M84.852 113.172L74.255 123.768H192.746V114.133" fill="white"/>
<path d="M84.852 113.172L74.255 123.768H192.746V114.133" stroke="black" stroke-miterlimit="10" stroke-linecap="round" stroke-linejoin="round"/>
<path d="M84.852 100.907L74.255 111.504H192.746V101.869" fill="white"/>
<path d="M84.852 100.907L74.255 111.504H192.746V101.869" stroke="black" stroke-miterlimit="10" stroke-linecap="round" stroke-linejoin="round"/>
<path d="M84.852 88.643L74.255 99.239H192.746V89.604" fill="white"/>
<path d="M84.852 88.643L74.255 99.239H192.746V89.604" stroke="black" stroke-miterlimit="10" stroke-linecap="round" stroke-linejoin="round"/>
<path d="M84.852 76.378L74.255 86.975H192.746V77.34" fill="white"/>
<path d="M84.852 76.378L74.255 86.975H192.746V77.34" stroke="black" stroke-miterlimit="10" stroke-linecap="round" stroke-linejoin="round"/>
<path d="M84.852 64.114L74.255 74.71H192.746V65.075" fill="white"/>
<path d="M84.852 64.114L74.255 74.71H192.746V65.075" stroke="black" stroke-miterlimit="10" stroke-linecap="round" stroke-linejoin="round"/>
<path d="M84.852 51.849L74.255 62.446H192.746V52.811" fill="white"/>
<path d="M84.852 51.849L74.255 62.446H192.746V52.811" stroke="black" stroke-miterlimit="10" stroke-linecap="round" stroke-linejoin="round"/>
<path d="M84.852 39.584L74.255 50.181H192.746V40.546" fill="white"/>
<path d="M84.852 39.584L74.255 50.181H192.746V40.546" stroke="black" stroke-miterlimit="10" stroke-linecap="round" stroke-linejoin="round"/>
<path d="M204.044 260.345L193.447 270.942H311.938V261.307" fill="white"/>
<path d="M204.044 260.345L193.447 270.942H311.938V261.307" stroke="black" stroke-miterlimit="10" stroke-linecap="round" stroke-linejoin="round"/>
<path d="M204.044 248.081L193.447 258.677H311.938V249.043" fill="white"/>
<path d="M204.044 248.081L193.447 258.677H311.938V249.043" stroke="black" stroke-miterlimit="10" stroke-linecap="round" stroke-linejoin="round"/>
<path d="M204.044 235.816L193.447 246.413H311.938V236.778" fill="white"/>
<path d="M204.044 235.816L193.447 246.413H311.938V236.778" stroke="black" stroke-miterlimit="10" stroke-linecap="round" stroke-linejoin="round"/>
<path d="M204.044 223.552L193.447 234.149H311.938V224.514" fill="white"/>
<path d="M204.044 223.552L193.447 234.149H311.938V224.514" stroke="black" stroke-miterlimit="10" stroke-linecap="round" stroke-linejoin="round"/>
<path d="M204.044 211.287L193.447 221.884H311.938V212.249" fill="white"/>
<path d="M204.044 211.287L193.447 221.884H311.938V212.249" stroke="black" stroke-miterlimit="10" stroke-linecap="round" stroke-linejoin="round"/>
<path d="M204.044 199.023L193.447 209.62H311.938V199.985" fill="white"/>
<path d="M204.044 199.023L193.447 209.62H311.938V199.985" stroke="black" stroke-miterlimit="10" stroke-linecap="round" stroke-linejoin="round"/>
<path d="M204.044 186.758L193.447 197.355H311.938V187.72" fill="white"/>
<path d="M204.044 186.758L193.447 197.355H311.938V187.72" stroke="black" stroke-miterlimit="10" stroke-linecap="round" stroke-linejoin="round"/>
<path d="M204.044 174.494L193.447 185.091H311.938V175.456" fill="white"/>
<path d="M204.044 174.494L193.447 185.091H311.938V175.456" stroke="black" stroke-miterlimit="10" stroke-linecap="round" stroke-linejoin="round"/>
<path d="M204.044 162.229L193.447 172.826H311.938V163.191" fill="white"/>
<path d="M204.044 162.229L193.447 172.826H311.938V163.191" stroke="black" stroke-miterlimit="10" stroke-linecap="round" stroke-linejoin="round"/>
<path d="M204.044 149.965L193.447 160.562H311.938V150.927" fill="white"/>
<path d="M204.044 149.965L193.447 160.562H311.938V150.927" stroke="black" stroke-miterlimit="10" stroke-linecap="round" stroke-linejoin="round"/>
<path d="M204.044 137.701L193.447 148.297H311.938V138.662" fill="white"/>
<path d="M204.044 137.701L193.447 148.297H311.938V138.662" stroke="black" stroke-miterlimit="10" stroke-linecap="round" stroke-linejoin="round"/>
<path d="M204.044 125.436L193.447 136.033H311.938V126.398" fill="white"/>
<path d="M204.044 125.436L193.447 136.033H311.938V126.398" stroke="black" stroke-miterlimit="10" stroke-linecap="round" stroke-linejoin="round"/>
<path d="M204.044 113.172L193.447 123.768H311.938V114.133" fill="white"/>
<path d="M204.044 113.172L193.447 123.768H311.938V114.133" stroke="black" stroke-miterlimit="10" stroke-linecap="round" stroke-linejoin="round"/>
<path d="M204.044 100.907L193.447 111.504H311.938V101.869" fill="white"/>
<path d="M204.044 100.907L193.447 111.504H311.938V101.869" stroke="black" stroke-miterlimit="10" stroke-linecap="round" stroke-linejoin="round"/>
<path d="M204.044 88.643L193.447 99.239H311.938V89.604" fill="white"/>
<path d="M204.044 88.643L193.447 99.239H311.938V89.604" stroke="black" stroke-miterlimit="10" stroke-linecap="round" stroke-linejoin="round"/>
<path d="M204.044 76.378L193.447 86.975H311.938V77.34" fill="white"/>
<path d="M204.044 76.378L193.447 86.975H311.938V77.34" stroke="black" stroke-miterlimit="10" stroke-linecap="round" stroke-linejoin="round"/>
<path d="M204.044 64.114L193.447 74.71H311.938V65.075" fill="white"/>
<path d="M204.044 64.114L193.447 74.71H311.938V65.075" stroke="black" stroke-miterlimit="10" stroke-linecap="round" stroke-linejoin="round"/>
<path d="M204.044 51.849L193.447 62.446H311.938V52.811" fill="white"/>
<path d="M204.044 51.849L193.447 62.446H311.938V52.811" stroke="black" stroke-miterlimit="10" stroke-linecap="round" stroke-linejoin="round"/>
<path d="M204.044 39.584L193.447 50.181H311.938V40.546" fill="white"/>
<path d="M204.044 39.584L193.447 50.181H311.938V40.546" stroke="black" stroke-miterlimit="10" stroke-linecap="round" stroke-linejoin="round"/>
<path d="M90.361 39.237H307.693" stroke="black" stroke-miterlimit="10" stroke-linecap="round" stroke-linejoin="round"/>
</g>
<path d="M419.554 289.379H291.866V467.58H419.554V289.379Z" fill="#D4D4D4" stroke="#263238" stroke-miterlimit="10"/>
<path d="M348.694 313.233H301.688V379.883H348.694V313.233Z" stroke="#263238" stroke-miterlimit="10"/>
<path d="M406.925 313.233H359.919V379.883H406.925V313.233Z" stroke="#263238" stroke-miterlimit="10"/>
<path d="M408.426 390.701H299.866V467.581H408.426V390.701Z" fill="#263238" stroke="#263238" stroke-miterlimit="10"/>
<path d="M464.454 236.946H413.498V467.581H464.454V236.946Z" fill="#263238" stroke="#263238" stroke-miterlimit="10"/>
<path d="M436.057 171.749H420.79V222.894H436.057V171.749Z" fill="#666666" stroke="#263238" stroke-miterlimit="10"/>
<path d="M471.532 181.147H336.119C334.278 181.147 332.785 179.654 332.785 177.813V70.124C332.785 68.283 334.278 66.79 336.119 66.79H471.532C473.373 66.79 474.866 68.283 474.866 70.124V177.814C474.865 179.655 473.373 181.147 471.532 181.147Z" fill="white" stroke="#263238" stroke-miterlimit="10"/>
<path d="M468.595 76.431H339.056V171.506H468.595V76.431Z" fill="#263238" stroke="#263238" stroke-miterlimit="10"/>
<path d="M379.431 93.843L378.719 95.078C389.232 97.402 408.498 99.751 430.138 93.256L429.457 92.112C419.24 95.032 409.563 96.046 401.091 96.046C392.353 96.047 384.895 94.979 379.431 93.843Z" fill="#4F4F4F"/>
<path d="M434.572 100.703L433.085 98.206C421.533 101.987 410.56 103.253 401.091 103.253C390.198 103.253 381.293 101.594 375.763 100.211L373.911 103.426C383.693 106.045 407.776 110.495 434.572 100.703Z" fill="#4F4F4F"/>
<path d="M449.311 125.453L435.619 102.462C422.763 107.216 410.5 108.742 400.061 108.742C387.853 108.742 378.14 106.658 372.879 105.215L358.964 129.37C370.443 132.805 407.787 141.549 449.311 125.453Z" fill="#4F4F4F"/>
<path d="M432.034 96.442L431.198 95.038C420.338 98.356 410.043 99.479 401.091 99.479C391.376 99.479 383.244 98.159 377.675 96.893L376.801 98.41C387.035 100.903 408.229 104.116 432.034 96.442Z" fill="#4F4F4F"/>
<path d="M428.398 90.335L426.623 87.355C426.623 87.355 399.605 97.255 382.693 88.18L380.481 92.019C390.996 94.135 408.619 95.875 428.398 90.335Z" fill="#4F4F4F"/>
<path d="M400.958 154.277C394.435 154.277 388.387 153.774 383.019 153.037C368.424 151.031 356.654 147.039 350.243 144.51L349.901 145.103C349.901 145.103 373.619 163.665 409.299 160.159C444.979 156.653 459.416 142.422 459.416 142.422L457.647 139.452C438.006 150.885 417.889 154.277 400.958 154.277Z" fill="#4F4F4F"/>
<path d="M452.628 131.023L450.344 127.188C431.586 134.509 413.649 136.838 398.481 136.838C379.107 136.838 364.248 133.068 357.94 131.149L355.469 135.439C369.108 140.909 409.792 153.525 452.628 131.023Z" fill="#4F4F4F"/>
<path d="M383.357 151.064C402.323 153.662 429.933 153.265 456.625 137.736L453.645 132.731C434.222 142.951 415.379 146.008 399.864 146.008C393.889 146.008 388.408 145.559 383.576 144.897C370.42 143.095 360.089 139.503 354.453 137.201L351.251 142.759C357.609 145.249 369.11 149.113 383.357 151.064Z" fill="#4F4F4F"/>
<path d="M418.618 111.351C418.618 111.351 406.827 115.154 401.122 114.204C395.417 113.253 382.865 108.689 376.399 112.492C369.933 116.295 368.031 121.24 369.743 128.276C371.455 135.312 371.455 137.785 391.803 142.919C412.152 148.054 419.188 149.385 424.323 147.483C429.458 145.581 435.163 143.489 437.445 136.263C439.727 129.036 434.212 118.006 430.599 115.724C426.986 113.443 424.513 109.64 418.618 111.351Z" fill="#263238" stroke="#263238" stroke-miterlimit="10"/>
<path d="M383.816 138.926C383.816 138.926 379.442 132.27 381.153 126.945C382.865 121.62 389.331 118.577 392.754 118.958C396.177 119.338 398.649 124.473 398.649 125.044C398.649 125.615 401.121 124.854 401.502 125.805C401.882 126.756 401.882 126.756 401.882 126.756C401.882 126.756 405.685 129.609 404.925 131.32C404.164 133.032 401.502 134.743 403.023 135.123C404.544 135.503 407.968 130.369 412.912 130.179C417.856 129.989 422.231 130.559 422.231 130.559C422.231 130.559 419.949 124.283 421.09 122.762C422.231 121.241 424.893 122.191 425.084 119.909C425.274 117.627 423.563 115.915 424.514 114.964C425.465 114.013 425.465 114.013 425.465 114.013C425.465 114.013 432.882 119.908 432.311 122C431.741 124.092 430.409 123.712 428.698 124.853C426.986 125.994 424.704 125.994 424.895 127.515C425.085 129.036 427.177 131.699 428.128 132.269C429.079 132.84 431.931 135.122 431.931 138.355C431.931 141.588 423.754 145.201 420.331 146.342C416.908 147.483 412.154 148.054 412.154 148.054C412.154 148.054 389.711 144.632 383.816 138.926Z" fill="#4F4F4F"/>
<path d="M444.156 84.564H459.908" stroke="#FF9BD2" stroke-miterlimit="10"/>
<path d="M444.156 88.502H459.908" stroke="#FF9BD2" stroke-miterlimit="10"/>
<path d="M444.156 92.4399H459.908" stroke="#FF9BD2" stroke-miterlimit="10"/>
<path d="M345.273 84.564H361.024" stroke="#FF9BD2" stroke-miterlimit="10"/>
<path d="M345.273 88.502H361.024" stroke="#FF9BD2" stroke-miterlimit="10"/>
<path d="M345.273 92.4399H361.024" stroke="#FF9BD2" stroke-miterlimit="10"/>
<path d="M444.156 158.071H459.908" stroke="#FF9BD2" stroke-miterlimit="10"/>
<path d="M444.156 162.008H459.908" stroke="#FF9BD2" stroke-miterlimit="10"/>
<path d="M444.156 165.946H459.908" stroke="#FF9BD2" stroke-miterlimit="10"/>
<path d="M317.614 216.257L278.721 277.138H441.747L474.797 225.403C478.409 219.749 474.348 212.335 467.638 212.335H324.772C321.874 212.336 319.175 213.814 317.614 216.257Z" fill="#D4D4D4" stroke="#263238" stroke-miterlimit="10"/>
<path d="M349.505 205.449L315.424 258.799C312.989 262.611 315.727 267.608 320.25 267.608H412.508C414.462 267.608 416.281 266.611 417.334 264.964L451.416 211.614C453.851 207.802 451.113 202.805 446.59 202.805H354.333C352.377 202.806 350.557 203.803 349.505 205.449Z" fill="white" stroke="#263238" stroke-miterlimit="10"/>
<path d="M355.853 211.019L328.15 254.384C326.171 257.482 328.396 261.544 332.072 261.544H407.062C408.651 261.544 410.129 260.734 410.984 259.395L438.687 216.03C440.666 212.932 438.441 208.87 434.765 208.87H359.775C358.187 208.87 356.708 209.68 355.853 211.019Z" fill="white" stroke="#263238" stroke-miterlimit="10"/>
<path d="M359.775 208.87C358.186 208.87 356.708 209.68 355.852 211.019L328.149 254.384C326.17 257.482 328.395 261.544 332.072 261.544H384.488L418.138 208.87H359.775Z" fill="#263238" stroke="#263238" stroke-miterlimit="10"/>
<path d="M355.155 219.881L351.444 225.69H366.057L369.768 219.881H355.155Z" fill="white" stroke="#263238" stroke-miterlimit="10"/>
<path d="M372.647 219.881L368.936 225.69H383.549L387.26 219.881H372.647Z" fill="white" stroke="#263238" stroke-miterlimit="10"/>
<path d="M390.138 219.881L386.427 225.69H401.04L404.751 219.881H390.138Z" fill="white" stroke="#263238" stroke-miterlimit="10"/>
<path d="M349.325 228.798L345.614 234.607H360.227L363.938 228.798H349.325Z" fill="white" stroke="#263238" stroke-miterlimit="10"/>
<path d="M366.816 228.798L363.105 234.607H377.718L381.429 228.798H366.816Z" fill="white" stroke="#263238" stroke-miterlimit="10"/>
<path d="M384.308 228.798L380.597 234.607H395.21L398.921 228.798H384.308Z" fill="white" stroke="#263238" stroke-miterlimit="10"/>
<path d="M343.494 237.715L339.784 243.524H354.396L358.107 237.715H343.494Z" fill="white" stroke="#263238" stroke-miterlimit="10"/>
<path d="M360.986 237.715L357.275 243.524H371.888L375.599 237.715H360.986Z" fill="white" stroke="#263238" stroke-miterlimit="10"/>
<path d="M378.477 237.715L374.766 243.524H389.379L393.09 237.715H378.477Z" fill="white" stroke="#263238" stroke-miterlimit="10"/>
<path d="M337.664 246.633L333.953 252.441H348.566L352.277 246.633H337.664Z" fill="white" stroke="#263238" stroke-miterlimit="10"/>
<path d="M355.155 246.633L351.444 252.441H366.057L369.768 246.633H355.155Z" fill="white" stroke="#263238" stroke-miterlimit="10"/>
<path d="M372.647 246.633L368.936 252.441H383.549L387.26 246.633H372.647Z" fill="white" stroke="#263238" stroke-miterlimit="10"/>
<path d="M252.69 294.919C252.69 294.919 259.853 301.071 268.744 302.341C277.635 303.611 390.036 302.341 390.036 302.341C390.036 302.341 400.832 302.341 412.897 297.896C424.963 293.451 446.554 277.575 446.554 277.575L447.583 266.949L252.69 294.919Z" fill="#263238" stroke="#263238" stroke-miterlimit="10"/>
<path d="M284.557 266.949L251.056 289.584C248.671 291.195 249.812 294.92 252.69 294.92H385.209C398.88 294.92 412.239 290.83 423.567 283.176L447.583 266.949H284.557Z" fill="#ADADAD" stroke="#263238" stroke-miterlimit="10"/>
<path d="M299.226 275.67C302.032 275.67 304.306 274.817 304.306 273.765C304.306 272.713 302.032 271.86 299.226 271.86C296.42 271.86 294.146 272.713 294.146 273.765C294.146 274.817 296.42 275.67 299.226 275.67Z" fill="white" stroke="#263238" stroke-miterlimit="10"/>
<path d="M318.277 275.67C321.083 275.67 323.357 274.817 323.357 273.765C323.357 272.713 321.083 271.86 318.277 271.86C315.471 271.86 313.197 272.713 313.197 273.765C313.197 274.817 315.471 275.67 318.277 275.67Z" fill="white" stroke="#263238" stroke-miterlimit="10"/>
<path d="M289.301 280.123C289.301 281.175 287.026 282.028 284.221 282.028C281.415 282.028 279.141 281.175 279.141 280.123C279.141 279.071 281.415 278.218 284.221 278.218C287.027 278.218 289.301 279.071 289.301 280.123Z" fill="white" stroke="#263238" stroke-miterlimit="10"/>
<path d="M308.353 280.123C308.353 281.175 306.078 282.028 303.273 282.028C300.467 282.028 298.193 281.175 298.193 280.123C298.193 279.071 300.468 278.218 303.273 278.218C306.078 278.218 308.353 279.071 308.353 280.123Z" fill="white" stroke="#263238" stroke-miterlimit="10"/>
<path d="M269.216 288.386C272.022 288.386 274.296 287.533 274.296 286.481C274.296 285.429 272.022 284.576 269.216 284.576C266.41 284.576 264.136 285.429 264.136 286.481C264.136 287.533 266.41 288.386 269.216 288.386Z" fill="white" stroke="#263238" stroke-miterlimit="10"/>
<path d="M288.267 288.386C291.073 288.386 293.347 287.533 293.347 286.481C293.347 285.429 291.073 284.576 288.267 284.576C285.461 284.576 283.187 285.429 283.187 286.481C283.187 287.533 285.461 288.386 288.267 288.386Z" fill="white" stroke="#263238" stroke-miterlimit="10"/>
<path d="M337.328 275.67C340.134 275.67 342.408 274.817 342.408 273.765C342.408 272.713 340.134 271.86 337.328 271.86C334.522 271.86 332.248 272.713 332.248 273.765C332.248 274.817 334.522 275.67 337.328 275.67Z" fill="white" stroke="#263238" stroke-miterlimit="10"/>
<path d="M325.385 280.123C325.385 281.175 323.111 282.028 320.305 282.028C317.499 282.028 315.225 281.175 315.225 280.123C315.225 279.071 317.5 278.218 320.305 278.218C323.11 278.218 325.385 279.071 325.385 280.123Z" fill="white" stroke="#263238" stroke-miterlimit="10"/>
<path d="M305.463 288.386C308.269 288.386 310.543 287.533 310.543 286.481C310.543 285.429 308.269 284.576 305.463 284.576C302.657 284.576 300.383 285.429 300.383 286.481C300.383 287.533 302.657 288.386 305.463 288.386Z" fill="white" stroke="#263238" stroke-miterlimit="10"/>
<path d="M356.379 275.67C359.185 275.67 361.459 274.817 361.459 273.765C361.459 272.713 359.185 271.86 356.379 271.86C353.573 271.86 351.299 272.713 351.299 273.765C351.299 274.817 353.573 275.67 356.379 275.67Z" fill="white" stroke="#263238" stroke-miterlimit="10"/>
<path d="M375.43 275.67C378.236 275.67 380.51 274.817 380.51 273.765C380.51 272.713 378.236 271.86 375.43 271.86C372.624 271.86 370.35 272.713 370.35 273.765C370.35 274.817 372.624 275.67 375.43 275.67Z" fill="white" stroke="#263238" stroke-miterlimit="10"/>
<path d="M394.482 275.67C397.288 275.67 399.562 274.817 399.562 273.765C399.562 272.713 397.288 271.86 394.482 271.86C391.676 271.86 389.402 272.713 389.402 273.765C389.402 274.817 391.676 275.67 394.482 275.67Z" fill="white" stroke="#263238" stroke-miterlimit="10"/>
<path d="M418.613 273.765C418.613 274.817 416.338 275.67 413.533 275.67C410.727 275.67 408.453 274.817 408.453 273.765C408.453 272.713 410.728 271.86 413.533 271.86C416.338 271.86 418.613 272.713 418.613 273.765Z" fill="white" stroke="#263238" stroke-miterlimit="10"/>
<path d="M371.655 281.311C371.655 282.363 369.38 283.216 366.575 283.216C363.769 283.216 361.495 282.363 361.495 281.311C361.495 280.259 363.77 279.406 366.575 279.406C369.38 279.406 371.655 280.259 371.655 281.311Z" fill="white" stroke="#263238" stroke-miterlimit="10"/>
<path d="M390.706 281.311C390.706 282.363 388.431 283.216 385.626 283.216C382.821 283.216 380.546 282.363 380.546 281.311C380.546 280.259 382.821 279.406 385.626 279.406C388.431 279.406 390.706 280.259 390.706 281.311Z" fill="white" stroke="#263238" stroke-miterlimit="10"/>
<path d="M409.757 281.311C409.757 282.363 407.482 283.216 404.677 283.216C401.871 283.216 399.597 282.363 399.597 281.311C399.597 280.259 401.872 279.406 404.677 279.406C407.483 279.406 409.757 280.259 409.757 281.311Z" fill="white" stroke="#263238" stroke-miterlimit="10"/>
<path d="M362.799 288.857C362.799 289.909 360.524 290.762 357.719 290.762C354.913 290.762 352.639 289.909 352.639 288.857C352.639 287.805 354.914 286.952 357.719 286.952C360.525 286.952 362.799 287.805 362.799 288.857Z" fill="white" stroke="#263238" stroke-miterlimit="10"/>
<path d="M381.85 288.857C381.85 289.909 379.575 290.762 376.77 290.762C373.964 290.762 371.69 289.909 371.69 288.857C371.69 287.805 373.965 286.952 376.77 286.952C379.576 286.952 381.85 287.805 381.85 288.857Z" fill="white" stroke="#263238" stroke-miterlimit="10"/>
<path d="M400.901 288.857C400.901 289.909 398.627 290.762 395.821 290.762C393.015 290.762 390.741 289.909 390.741 288.857C390.741 287.805 393.016 286.952 395.821 286.952C398.627 286.952 400.901 287.805 400.901 288.857Z" fill="white" stroke="#263238" stroke-miterlimit="10"/>
<path d="M349.523 284.501C349.523 287.798 343.125 290.47 335.233 290.47C327.341 290.47 320.943 287.797 320.943 284.501C320.943 281.204 327.341 278.532 335.233 278.532C343.125 278.532 349.523 281.204 349.523 284.501Z" fill="white" stroke="#263238" stroke-miterlimit="10"/>
<path d="M200.711 369.42C200.711 369.42 225.566 372.527 243.587 371.284C261.607 370.041 271.549 363.206 271.549 363.206L274.035 437.772C274.035 437.772 258.5 444.607 225.567 447.093C225.567 447.093 198.848 451.443 185.177 445.229L190.77 367.556L200.711 369.42Z" fill="#263238" stroke="#263238" stroke-miterlimit="10"/>
<path d="M181.448 159.392C181.448 159.392 197.604 143.236 206.925 139.508C216.246 135.78 246.693 154.421 248.558 155.664C250.422 156.907 258.363 218.553 263.092 244.276C267.821 269.999 273.414 369.42 273.414 369.42C273.414 369.42 257.879 376.877 239.238 378.741C220.596 380.605 201.334 378.741 199.469 378.741C197.605 378.741 198.226 256.95 189.527 224.638C180.827 192.325 181.448 159.392 181.448 159.392Z" fill="#FF9BD2" stroke="#263238" stroke-miterlimit="10"/>
<path d="M203.98 99.316C203.98 99.316 189.497 104.261 181.372 114.152C173.247 124.043 175.367 137.82 178.546 140.646C181.725 143.472 191.263 140.646 195.149 137.82C199.035 134.994 202.214 127.929 202.214 120.157C202.214 112.386 200.448 108.853 205.04 106.027C205.04 106.027 207.159 100.376 203.98 99.316Z" fill="#263238" stroke="#263238" stroke-miterlimit="10"/>
<path d="M274.512 167.267C274.512 167.267 284.262 169.607 288.942 191.447C293.622 213.287 304.713 263.08 305.103 301.689C305.493 340.299 320.214 381.626 320.994 382.796C321.774 383.966 324.504 395.666 324.504 395.666C324.504 395.666 310.854 404.246 307.344 405.026C303.834 405.806 294.084 406.196 294.084 406.196C294.084 406.196 281.994 335.606 282.384 308.696C282.774 281.786 276.072 212.507 276.072 201.197C276.072 189.887 274.512 167.267 274.512 167.267Z" fill="white" stroke="#263238" stroke-miterlimit="10"/>
<path d="M240.654 150.356C240.654 150.356 245.596 212.204 247.936 232.094C250.276 251.984 269.124 417.505 269.124 417.505C269.124 417.505 287.064 420.235 303.054 408.535L307.344 400.345C307.344 400.345 295.254 346.915 292.914 329.365C291.259 316.953 290.422 268.789 290.074 241.653C289.933 230.656 288.304 219.749 285.455 209.126C284.442 205.35 283.619 201.469 283.482 198.466C283.092 189.886 284.652 181.306 280.752 173.506C276.852 165.706 257.424 153.085 253.914 150.355C250.404 147.625 245.874 144.63 242.484 144.178C239.094 143.726 241.044 146.066 240.654 150.356Z" fill="white" stroke="#263238" stroke-miterlimit="10"/>
<path d="M255.377 327.415C255.377 327.415 259.617 330.595 249.724 340.841C239.831 351.087 218.986 361.156 214.04 386.241C209.094 411.326 209.094 421.042 209.094 421.042L211.391 420.159C211.391 420.159 212.098 402.14 216.867 387.301C221.637 372.462 221.107 371.049 230.116 361.509C239.125 351.969 251.491 345.257 254.848 339.604C258.205 333.951 258.911 329.358 258.734 327.062L255.377 327.415Z" fill="white" stroke="#263238" stroke-miterlimit="10"/>
<path d="M258.142 162.596C258.488 163.491 258.82 164.306 259.121 164.984C261.081 169.394 263.471 181.761 263.471 181.761L254.711 179.683L269.951 203.116C269.951 203.116 265.051 220.755 263.091 244.274C261.131 267.793 261.621 299.642 261.621 299.642" stroke="#263238" stroke-miterlimit="10"/>
<path d="M253.914 150.356C253.914 150.356 254.547 152.348 255.422 154.952" stroke="#263238" stroke-miterlimit="10"/>
<path d="M284.472 254.973L265.263 257.014V225.954L284.472 223.912V254.973Z" fill="#FF9BD2" stroke="#263238" stroke-miterlimit="10"/>
<path d="M282.219 251.57L267.516 253.133V229.357L282.219 227.794V251.57Z" fill="white"/>
<path d="M276.556 226.988L272.636 227.169L272.329 220.079L276.249 219.898L276.556 226.988Z" fill="#263238" stroke="#263238" stroke-miterlimit="10"/>
<path d="M282.048 74.9411C282.048 74.9411 286.287 83.772 283.814 95.076C281.341 106.38 277.455 111.679 277.809 115.211C278.162 118.744 281.342 121.57 279.929 124.042C278.516 126.515 273.217 128.281 273.217 128.281C273.217 128.281 268.271 139.232 262.973 145.59C257.674 151.949 242.484 144.177 242.484 144.177C242.484 144.177 237.185 176.323 234.006 183.034C230.827 189.746 230.827 189.746 230.827 189.746C230.827 189.746 207.512 155.834 203.627 149.829C199.741 143.824 198.682 138.878 198.682 138.878C198.682 138.878 205.747 128.634 207.16 125.808C208.573 122.982 209.986 114.151 209.986 114.151C209.986 114.151 201.508 94.016 198.682 82.712C195.856 71.408 199.388 57.9841 223.41 49.8601C247.43 41.7361 274.277 55.5131 282.048 74.9411Z" fill="white" stroke="#263238" stroke-miterlimit="10"/>
<path d="M242.484 144.179L234.92 140.592L238.775 162.95L242.484 144.179Z" fill="#263238" stroke="#263238" stroke-miterlimit="10"/>
<path d="M275.701 110.612C274.961 112.684 273.765 114.151 273.03 113.888C272.295 113.626 272.299 111.733 273.038 109.661C273.777 107.589 274.974 106.122 275.709 106.385C276.444 106.648 276.441 108.54 275.701 110.612Z" fill="#263238"/>
<path d="M268.073 132.882C268.073 132.882 264.732 132.368 263.704 128.256" stroke="#263238" stroke-miterlimit="10"/>
<path d="M272.442 103.84C272.442 103.84 277.325 101.013 278.867 103.326" stroke="#263238" stroke-miterlimit="10"/>
<path d="M280.635 68.23C280.635 68.23 280.282 89.072 266.505 95.077C252.728 101.082 253.435 98.963 253.435 98.963C253.435 98.963 249.196 104.262 246.017 104.262C242.838 104.262 236.833 101.436 233.653 102.849C230.474 104.262 226.941 105.322 224.469 110.267C221.996 115.212 216.697 117.685 213.165 117.685C209.633 117.685 207.866 110.973 202.921 101.789C197.976 92.604 191.97 82.36 195.503 70.703C199.035 59.046 211.752 48.095 229.415 46.682C247.077 45.269 260.854 48.448 267.919 53.747C274.983 59.045 283.815 57.632 280.635 68.23Z" fill="#263238" stroke="#263238" stroke-miterlimit="10"/>
<path d="M234.868 99.035L269.536 106.274" stroke="#263238" stroke-miterlimit="10"/>
<path d="M281.492 110.614C279.701 116.886 275.625 121.22 272.388 120.296C269.151 119.372 267.979 113.538 269.77 107.266C271.561 100.994 275.637 96.66 278.874 97.584C282.111 98.509 283.284 104.343 281.492 110.614Z" stroke="#263238" stroke-miterlimit="10"/>
<path d="M241.071 104.615C241.071 104.615 232.24 90.132 226.941 95.784C221.642 101.436 224.115 110.267 226.588 115.213C229.061 120.159 235.419 118.392 238.245 116.273" fill="white"/>
<path d="M241.071 104.615C241.071 104.615 232.24 90.132 226.941 95.784C221.642 101.436 224.115 110.267 226.588 115.213C229.061 120.159 235.419 118.392 238.245 116.273" stroke="#263238" stroke-miterlimit="10"/>
<path d="M199.238 134.545C199.238 134.545 221.295 226.453 222.324 237.716C227.43 293.611 201.654 425.305 201.654 425.305C201.654 425.305 194.438 452.595 174.612 449.578C146.028 445.228 132.444 431.412 130.494 429.072C128.544 426.732 128.544 426.732 128.544 426.732C128.544 426.732 145.249 315.471 146.029 307.281C146.809 299.091 145.639 251.7 146.029 243.9C146.419 236.1 135.92 195.558 141.77 182.298C147.62 169.038 186.292 140.573 199.238 134.545Z" fill="white" stroke="#263238" stroke-miterlimit="10"/>
<path d="M211.954 281.657C212.716 286.575 213.354 290.756 213.354 290.756" stroke="#263238" stroke-miterlimit="10"/>
<path d="M187.72 160.646C187.771 170.69 187.224 188.186 187.224 188.186L203.817 184.869L188.282 199.161C188.282 199.161 200.483 234.986 204.383 244.736C208.283 254.486 209.063 264.626 209.453 266.186C209.584 266.711 210.069 269.665 210.654 273.354" stroke="#263238" stroke-miterlimit="10"/>
<path d="M188.784 144.116C188.784 144.116 187.904 146.536 187.631 150.88" stroke="#263238" stroke-miterlimit="10"/>
<path d="M623.626 467.687C623.502 445.582 626.11 369.776 625.301 358.867C624.346 345.976 619.572 337.382 615.275 333.085C610.978 328.788 580.898 325.923 580.898 325.923C580.898 325.923 379.811 290.854 371.018 295.497C362.225 300.14 253.844 411.864 251.934 414.251C250.348 416.234 200.886 455.49 185.221 467.687" fill="#ADADAD"/>
<path d="M623.626 467.687C623.502 445.582 626.11 369.776 625.301 358.867C624.346 345.976 619.572 337.382 615.275 333.085C610.978 328.788 580.898 325.923 580.898 325.923C580.898 325.923 379.811 290.854 371.018 295.497C362.225 300.14 253.844 411.864 251.934 414.251C250.348 416.234 200.886 455.49 185.221 467.687" stroke="#263238" stroke-miterlimit="10"/>
<path d="M587.445 326.435C587.445 326.435 564.471 354.332 557.36 360.896C550.249 367.46 548.608 369.648 544.779 372.93C540.95 376.212 542.044 377.306 537.121 379.494C532.198 381.682 519.07 381.682 519.07 381.682C519.07 381.682 496.096 429.819 492.814 435.836C489.532 441.853 484.609 453.34 479.139 454.981C473.669 456.622 450.038 450.369 447.358 449.12C444.678 447.87 432.643 435.836 431.002 435.289C429.361 434.742 422.797 441.853 417.874 442.947C412.951 444.041 392.712 444.041 392.712 444.041L424.398 410.967C424.398 410.967 490.079 378.947 494.455 371.289C498.831 363.631 528.369 335.733 543.139 329.716C557.906 323.7 587.445 326.435 587.445 326.435Z" fill="#263238" stroke="#263238" stroke-miterlimit="10"/>
<path d="M452.371 209.724C452.371 209.724 415.59 204.228 414.745 209.724C413.899 215.22 393.236 234.537 375.903 261.172C358.569 287.807 351.382 300.49 356.033 302.604C360.683 304.718 477.791 342.767 477.791 342.767C477.791 342.767 511.613 370.67 526.41 375.32C541.207 379.97 546.28 361.369 547.548 359.678C548.816 357.987 591.093 324.588 605.89 309.791C620.687 294.994 627.874 284.425 627.451 279.774C627.028 275.124 618.15 271.319 602.085 259.058C586.02 246.798 570.377 236.651 530.214 223.123C490.05 209.594 452.371 209.724 452.371 209.724Z" fill="white" stroke="#263238" stroke-miterlimit="10"/>
<path d="M343.985 313.83C343.985 313.83 320.035 314.162 301.072 325.856C275.706 341.498 271.478 372.361 270.632 379.971C269.787 387.581 283.738 401.11 297.267 409.565C310.796 418.02 387.74 442.964 397.041 441.695C406.342 440.427 412.683 435.776 417.334 428.589C421.984 421.402 429.013 412.101 429.594 395.613C430.175 379.125 413.952 344.881 402.537 332.198C391.122 319.514 350.963 312.374 343.985 313.83Z" fill="white" stroke="#263238" stroke-miterlimit="10"/>
<path d="M341.328 332.4C341.328 333.695 339.578 334.746 337.419 334.746C335.26 334.746 333.51 333.696 333.51 332.4C333.51 331.105 335.26 330.055 337.419 330.055C339.578 330.055 341.328 331.105 341.328 332.4Z" stroke="#263238" stroke-miterlimit="10"/>
<path d="M464.215 217.823C464.215 217.823 453.984 215.639 450.566 218.125C447.148 220.611 449.634 226.826 449.634 226.826L464.215 217.823Z" fill="#263238" stroke="#263238" stroke-miterlimit="10"/>
<path d="M464.215 217.823C464.215 217.823 449.364 224.506 446.022 229.333C442.68 234.16 445.279 236.387 440.453 239.729C435.626 243.071 431.542 241.214 430.428 245.67C429.314 250.125 432.656 252.724 432.656 252.724C432.656 252.724 427.829 265.348 427.458 271.659C427.087 277.97 433.027 280.198 435.255 283.54C437.483 286.881 439.71 286.51 433.77 293.936C427.83 301.362 423.374 303.961 423.374 303.961C423.374 303.961 444.537 311.015 453.819 313.243C463.101 315.471 467.928 315.471 467.928 315.471C467.928 315.471 472.012 295.422 478.324 289.11C484.636 282.798 496.888 283.17 504.685 267.576C512.482 251.982 506.17 233.047 492.433 224.879C478.696 216.709 472.384 213.367 464.215 217.823Z" fill="white" stroke="#263238" stroke-miterlimit="10"/>
<path d="M433.968 257.348C433.968 257.348 440.696 259.378 448.428 256.182" stroke="#263238" stroke-miterlimit="10"/>
<path d="M456.11 238.552C455.087 240.037 453.741 240.885 453.105 240.446C452.469 240.007 452.782 238.448 453.806 236.964C454.829 235.479 456.175 234.631 456.811 235.07C457.447 235.508 457.133 237.068 456.11 238.552Z" fill="#263238"/>
<path d="M452.392 231.461C452.392 231.461 456.823 227.03 461.721 232.161" stroke="#263238" stroke-miterlimit="10"/>
<path d="M463.928 212.531C463.928 212.531 461.442 221.853 468.278 231.486C475.114 241.119 477.289 244.847 477.6 241.74C477.911 238.633 477.6 233.972 477.6 233.972C477.6 233.972 480.707 248.266 482.261 251.995C483.815 255.724 490.34 265.046 490.962 265.978C491.583 266.91 489.408 273.436 483.504 279.029C477.6 284.622 472.007 293.323 468.278 302.334C464.549 311.345 470.764 314.763 474.182 316.317C477.6 317.871 499.973 321.289 504.945 330.921C509.917 340.554 516.131 346.458 513.646 352.051C511.16 357.644 515.51 359.198 523.9 352.983C532.29 346.768 545.34 340.554 539.747 325.638C534.154 310.723 518.617 314.141 512.713 310.101C506.809 306.061 512.713 307.615 518.306 302.643C523.899 297.671 518.306 283.999 515.509 279.338C512.713 274.677 529.181 266.909 528.56 250.44C527.938 233.971 514.577 224.96 491.583 215.638C468.589 206.317 465.171 206.006 463.928 212.531Z" fill="#263238" stroke="#263238" stroke-miterlimit="10"/>
<path d="M484.74 261.082C484.74 261.082 492.669 257.351 495.002 262.248C497.334 267.146 495.002 272.043 488.006 275.775C481.009 279.507 476.811 275.775 477.511 273.443" fill="white"/>
<path d="M484.74 261.082C484.74 261.082 492.669 257.351 495.002 262.248C497.334 267.146 495.002 272.043 488.006 275.775C481.009 279.507 476.811 275.775 477.511 273.443" stroke="#263238" stroke-miterlimit="10"/>
<path d="M515.51 328.435C509.402 322.021 500.882 316.525 488.201 318.108C491.814 317.625 475.641 317.307 453.821 313.242C441.516 310.95 426.331 304.197 414.212 297.983C402.094 291.768 387.489 288.972 371.02 295.497C354.551 302.022 351.755 309.791 350.822 311.034C349.89 312.277 343.986 313.831 343.986 313.831C343.986 313.831 376.613 315.385 395.568 332.786C410.642 346.625 416.869 363.013 420.352 374.928L420.812 377.717C420.812 377.717 424.398 407.383 424.398 410.969C424.398 414.555 423.094 418.141 422.442 419.445C421.79 420.749 421.138 422.379 421.138 422.379C421.138 422.379 423.214 422.06 427.332 422.705C431.45 423.35 434.83 419.771 439.068 414.229C439.28 413.952 439.483 413.681 439.685 413.41C446.937 408.812 455.13 403.275 456.472 402.7C458.647 401.768 484.749 439.056 486.613 437.191C488.478 435.327 512.715 390.27 518.618 373.491C524.521 356.711 521.724 334.96 515.51 328.435Z" fill="#FF9BD2" stroke="#263238" stroke-miterlimit="10"/>
<path d="M490.746 414.965C491.577 416.676 492.202 418.498 492.531 420.422" stroke="#263238" stroke-miterlimit="10"/>
<path d="M473.622 398.58C473.622 398.58 482.936 403.328 488.579 411.322" stroke="#263238" stroke-miterlimit="10"/>
<path d="M485.672 396.248C486.965 396.826 488.281 397.49 489.596 398.254" stroke="#263238" stroke-miterlimit="10"/>
<path d="M469.384 392.386C469.384 392.386 473.685 392.386 479.481 394.015" stroke="#263238" stroke-miterlimit="10"/>
<path d="M466.124 340.552C466.124 340.552 475.057 343.306 477.6 352.361" stroke="#263238" stroke-miterlimit="10"/>
<path d="M466.639 379.436C463.913 384.793 461.752 388.716 461.752 388.716" stroke="#263238" stroke-miterlimit="10"/>
<path d="M477.911 334.339C477.911 334.339 478.222 343.661 477.6 352.361C477.275 356.908 472.962 366.631 468.918 374.879" stroke="#263238" stroke-miterlimit="10"/>
<path d="M440.002 336.203C440.002 336.203 430.68 323.774 426.951 321.288C423.222 318.802 402.403 305.751 399.607 304.819C396.81 303.887 385.624 304.508 377.856 306.062C370.088 307.616 360.766 310.412 363.252 312.898C365.738 315.384 389.043 322.22 389.043 322.22C389.043 322.22 399.297 330.299 406.755 334.338C414.213 338.377 417.32 338.999 417.32 338.999L430.06 390.27L453.365 372.248L440.002 336.203Z" fill="white" stroke="#263238" stroke-miterlimit="10"/>
<path d="M366.047 313.52C366.047 313.52 368.222 312.277 371.951 313.209C375.68 314.141 386.555 316.006 388.42 316.006" stroke="#263238" stroke-miterlimit="10"/>
<path d="M365.363 310.305C365.363 310.305 375.514 309.111 377.306 309.509C379.097 309.907 392.035 311.301 392.035 311.301" stroke="#263238" stroke-miterlimit="10"/>
<path d="M377.855 306.062C377.855 306.062 392.433 306.921 393.627 307.518" stroke="#263238" stroke-miterlimit="10"/>
<path d="M450.856 361.626C450.856 361.626 435.584 364.171 433.993 368.626C432.402 373.08 430.175 379.125 430.175 379.125C430.175 379.125 419.994 382.943 420.63 384.852C421.266 386.761 425.084 414.441 431.447 423.349C437.81 432.258 447.355 449.12 447.355 449.12C447.355 449.12 467.081 465.983 477.262 459.301C487.443 452.62 490.307 433.848 485.852 423.667C481.398 413.486 468.989 393.76 464.535 386.76C460.083 379.761 450.856 361.626 450.856 361.626Z" fill="#FF9BD2" stroke="#263238" stroke-miterlimit="10"/>
<path d="M449.271 467.136C449.271 467.136 421.136 422.378 361.832 407.562C330.579 399.754 333.006 401.797 300.337 402.758C290.685 403.042 270.632 379.971 270.632 379.971C270.632 379.971 260.941 382.58 259.019 388.345C257.097 394.11 254.215 398.914 254.215 398.914C254.215 398.914 234.998 401.797 199.446 421.975C163.894 442.153 147.559 468.096 147.559 468.096" fill="#DBDBDB"/>
<path d="M449.271 467.136C449.271 467.136 421.136 422.378 361.832 407.562C330.579 399.754 333.006 401.797 300.337 402.758C290.685 403.042 270.632 379.971 270.632 379.971C270.632 379.971 260.941 382.58 259.019 388.345C257.097 394.11 254.215 398.914 254.215 398.914C254.215 398.914 234.998 401.797 199.446 421.975C163.894 442.153 147.559 468.096 147.559 468.096" stroke="#263238" stroke-miterlimit="10"/>
<path d="M399.204 462.218C399.986 464.116 400.666 466.075 401.228 468.097" stroke="#263238" stroke-miterlimit="10"/>
<path d="M347.42 417.171C347.42 417.171 380.855 429.527 395.887 455.504" stroke="#263238" stroke-miterlimit="10"/>
<path d="M296.467 417.484C281.73 426.452 255.424 444.429 242.685 465.214" stroke="#263238" stroke-miterlimit="10"/>
<path d="M307.063 411.406C307.063 411.406 304.708 412.633 300.85 414.876" stroke="#263238" stroke-miterlimit="10"/>
<path d="M276.046 288.904C276.046 288.904 271.276 289.611 268.803 297.03C266.33 304.449 276.752 316.815 278.696 321.408C280.639 326.001 285.232 334.127 285.409 337.484C285.586 340.84 296.207 344.557 306.254 337.131C314.38 331.125 312.613 322.292 311.2 320.172C309.787 318.052 307.289 317.2 305.724 315.932C298.304 309.926 295.301 304.803 292.122 299.15C288.942 293.497 284.879 286.254 276.046 288.904Z" fill="white" stroke="#263238" stroke-miterlimit="10"/>
<path d="M267.036 287.314C267.036 287.314 269.332 290.317 269.686 292.26C270.039 294.203 272.336 294.556 274.632 293.32C276.928 292.084 275.692 289.964 276.045 288.904C276.398 287.844 268.449 282.015 264.739 276.891C261.029 271.768 252.55 263.465 249.723 262.405C246.896 261.345 246.013 262.582 246.896 267.175C247.779 271.768 255.187 291.253 255.187 291.253L258.026 292.26C258.026 292.26 249.017 270.531 248.84 268.058C248.663 265.585 251.843 267.705 253.256 269.471C254.671 271.238 267.036 287.314 267.036 287.314Z" fill="white" stroke="#263238" stroke-miterlimit="10"/>
<path d="M224.477 357.293C224.477 357.293 232.401 356.37 236.129 340.836C239.857 325.301 245.45 302.932 242.343 302.31C239.236 301.689 221.837 304.174 221.837 304.174C221.837 304.174 215.932 345.788 224.477 357.293Z" fill="#263238" stroke="#263238" stroke-miterlimit="10"/>
<path d="M237.925 296.149C237.925 296.149 254.157 291.254 255.188 291.254C256.219 291.254 274.512 299.241 274.512 299.241C274.512 299.241 284.818 306.713 285.849 307.228C286.88 307.743 288.168 309.032 287.137 310.577C286.106 312.122 281.726 311.092 281.726 311.092L272.708 307.743L268.843 307.485C268.843 307.485 286.364 313.669 288.167 314.699C289.971 315.73 293.062 317.791 292.032 320.11C291.001 322.429 291.001 322.429 291.001 322.429C291.001 322.429 291.259 326.036 289.713 327.067C288.167 328.098 284.818 327.325 284.818 327.325C284.818 327.325 281.211 328.613 279.15 329.129C277.089 329.644 255.704 328.614 252.096 328.356C248.489 328.098 230.968 319.596 230.968 319.596L225.3 318.565C225.3 318.565 224.785 310.062 226.331 304.909C227.877 299.756 231.742 295.891 231.742 295.891L237.925 296.149Z" fill="white" stroke="#263238" stroke-miterlimit="10"/>
<path d="M256.26 311.516L270.04 316.462L291.002 322.43" stroke="#263238" stroke-miterlimit="10"/>
<path d="M254.494 319.995L274.633 324.765L283.112 327.061" stroke="#263238" stroke-miterlimit="10"/>
<path d="M268.844 307.486C268.844 307.486 262.797 304.45 262.09 304.45C261.383 304.45 254.847 301.447 254.847 301.447" stroke="#263238" stroke-miterlimit="10"/>
<path d="M248.664 327.061C248.664 327.061 246.191 325.648 245.838 323.351C245.485 321.055 245.661 318.581 245.661 318.581C245.661 318.581 244.248 316.638 244.071 314.518C243.894 312.398 244.954 309.748 244.954 309.748" stroke="#263238" stroke-miterlimit="10"/>
<path d="M150.209 172.975C150.209 172.975 143.886 175.937 141.111 181.397C137.386 188.724 135.213 197.175 135.894 212.172C136.151 217.837 145.755 279.704 145.189 281.969C144.623 284.234 144.339 296.128 149.72 305.189C155.1 314.25 171.524 338.603 192.479 347.099C213.434 355.594 224.478 357.293 224.478 357.293C224.478 357.293 225.044 338.604 227.876 316.799C230.708 294.995 237.926 296.149 237.926 296.149C237.926 296.149 225.611 294.712 223.345 294.429C221.08 294.146 212.018 289.615 210.036 288.482C208.054 287.349 205.222 287.066 205.222 287.066C205.222 287.066 205.222 286.216 202.674 282.535C200.125 278.854 198.426 276.588 198.426 276.588C198.426 276.588 200.125 272.34 200.125 269.509C200.125 266.677 198.143 257.332 198.143 257.332C198.143 257.332 186.573 236.962 184.294 225.464C182.015 213.966 178.631 197.147 175.233 192.616C171.835 188.085 168.437 186.103 168.437 186.103" fill="white"/>
<path d="M150.209 172.975C150.209 172.975 143.886 175.937 141.111 181.397C137.386 188.724 135.213 197.175 135.894 212.172C136.151 217.837 145.755 279.704 145.189 281.969C144.623 284.234 144.339 296.128 149.72 305.189C155.1 314.25 171.524 338.603 192.479 347.099C213.434 355.594 224.478 357.293 224.478 357.293C224.478 357.293 225.044 338.604 227.876 316.799C230.708 294.995 237.926 296.149 237.926 296.149C237.926 296.149 225.611 294.712 223.345 294.429C221.08 294.146 212.018 289.615 210.036 288.482C208.054 287.349 205.222 287.066 205.222 287.066C205.222 287.066 205.222 286.216 202.674 282.535C200.125 278.854 198.426 276.588 198.426 276.588C198.426 276.588 200.125 272.34 200.125 269.509C200.125 266.677 198.143 257.332 198.143 257.332C198.143 257.332 186.573 236.962 184.294 225.464C182.015 213.966 178.631 197.147 175.233 192.616C171.835 188.085 168.437 186.103 168.437 186.103" stroke="#263238" stroke-miterlimit="10"/>
<path d="M171.156 288.292C174.866 284.8 179.106 281.152 182.001 279.704C188.231 276.589 193.611 276.872 193.611 276.872" stroke="#263238" stroke-miterlimit="10"/>
<path d="M163.312 296.128C163.312 296.128 164.826 294.511 167.062 292.272" stroke="#263238" stroke-miterlimit="10"/>
<path d="M201.824 287.349C201.824 287.349 191.063 281.969 181.436 286.5" stroke="#263238" stroke-miterlimit="10"/>
<path d="M668.618 259.809H664.892V467.533H668.618V259.809Z" fill="#263238"/>
<path d="M680.121 239.894H676.395V467.533H680.121V239.894Z" fill="#263238"/>
<path d="M691.624 239.894H687.898V467.533H691.624V239.894Z" fill="#263238"/>
<path d="M664.717 259.545C664.717 259.545 662.321 254.273 653.694 253.794C645.067 253.315 638.357 258.587 638.357 258.587C638.357 258.587 646.026 258.108 649.38 259.545C652.735 260.983 657.049 263.859 657.049 263.859C657.049 263.859 654.173 266.255 652.256 271.048C650.339 275.841 647.463 284.947 647.463 284.947C647.463 284.947 656.569 278.237 658.966 273.924C661.362 269.61 664.717 267.214 664.717 267.214C664.717 267.214 666.155 272.486 665.196 276.32C664.238 280.154 663.758 285.906 663.758 285.906C663.758 285.906 673.344 282.551 671.427 270.569C669.51 258.586 664.717 259.545 664.717 259.545Z" fill="#FF9BD2"/>
<path d="M681.013 293.094C681.013 293.094 678.617 287.822 669.99 287.343C661.363 286.864 654.653 292.136 654.653 292.136C654.653 292.136 662.321 291.657 665.676 293.094C669.031 294.532 673.345 297.408 673.345 297.408C673.345 297.408 670.469 299.805 668.552 304.597C666.635 309.39 663.759 318.496 663.759 318.496C663.759 318.496 672.865 311.786 675.262 307.473C677.658 303.159 681.013 300.763 681.013 300.763C681.013 300.763 682.451 306.035 681.492 309.869C680.534 313.703 680.054 319.455 680.054 319.455C680.054 319.455 689.64 316.1 687.723 304.118C685.805 292.136 681.013 293.094 681.013 293.094Z" fill="#FF9BD2"/>
<path d="M661.362 308.431C661.362 308.431 658.966 303.159 650.339 302.68C641.712 302.201 635.002 307.473 635.002 307.473C635.002 307.473 642.671 306.994 646.026 308.432C649.381 309.87 653.695 312.746 653.695 312.746C653.695 312.746 650.819 315.143 648.902 319.935C646.985 324.728 644.109 333.834 644.109 333.834C644.109 333.834 653.215 327.124 655.612 322.811C658.008 318.497 661.363 316.101 661.363 316.101C661.363 316.101 662.801 321.373 661.842 325.207C660.883 329.041 660.404 334.793 660.404 334.793C660.404 334.793 669.99 331.438 668.072 319.456C666.155 307.473 661.362 308.431 661.362 308.431Z" fill="#FF9BD2"/>
<path d="M692.481 367.814C692.481 367.814 687.723 366.949 683.289 372.641C678.855 378.333 679.279 385.445 679.279 385.445C679.279 385.445 682.599 379.955 685.182 378.337C687.765 376.719 691.791 375.128 691.791 375.128C691.791 375.128 692.067 378.241 694.443 381.838C696.819 385.434 701.699 391.741 701.699 391.741C701.699 391.741 701.429 382.3 699.609 378.603C697.79 374.906 697.742 371.464 697.742 371.464C697.742 371.464 702.044 372.986 704.219 375.469C706.394 377.951 710.112 381.017 710.112 381.017C710.112 381.017 712.371 372.843 703.238 368.457C694.104 364.069 692.481 367.814 692.481 367.814Z" fill="#FF9BD2"/>
<path d="M694.018 361.368C694.018 361.368 692.498 365.958 697.514 371.144C702.53 376.33 709.633 376.903 709.633 376.903C709.633 376.903 704.661 372.848 703.419 370.065C702.178 367.281 701.164 363.073 701.164 363.073C701.164 363.073 704.286 363.235 708.178 361.384C712.071 359.533 718.997 355.582 718.997 355.582C718.997 355.582 709.61 354.531 705.695 355.817C701.78 357.102 698.365 356.669 698.365 356.669C698.365 356.669 700.473 352.622 703.235 350.815C705.997 349.008 709.552 345.755 709.552 345.755C709.552 345.755 701.774 342.376 696.155 350.808C690.537 359.237 694.018 361.368 694.018 361.368Z" fill="#FF9BD2"/>
<path d="M646.09 375.746C646.09 375.746 644.57 380.337 649.586 385.522C654.602 390.708 661.705 391.281 661.705 391.281C661.705 391.281 656.733 387.226 655.491 384.443C654.25 381.659 653.236 377.451 653.236 377.451C653.236 377.451 656.358 377.613 660.25 375.762C664.143 373.911 671.069 369.96 671.069 369.96C671.069 369.96 661.682 368.909 657.767 370.195C653.852 371.48 650.437 371.047 650.437 371.047C650.437 371.047 652.545 367 655.307 365.193C658.069 363.386 661.624 360.132 661.624 360.132C661.624 360.132 653.846 356.753 648.227 365.185C642.609 373.616 646.09 375.746 646.09 375.746Z" fill="#FF9BD2"/>
<path d="M688.419 393.729C688.419 393.729 686.898 398.319 691.915 403.505C696.931 408.691 704.034 409.264 704.034 409.264C704.034 409.264 699.062 405.209 697.82 402.426C696.579 399.642 695.565 395.434 695.565 395.434C695.565 395.434 698.687 395.596 702.58 393.745C706.473 391.894 713.399 387.943 713.399 387.943C713.399 387.943 704.012 386.892 700.097 388.178C696.182 389.463 692.767 389.03 692.767 389.03C692.767 389.03 694.875 384.983 697.637 383.176C700.399 381.369 703.954 378.116 703.954 378.116C703.954 378.116 696.176 374.737 690.557 383.169C684.938 391.599 688.419 393.729 688.419 393.729Z" fill="#FF9BD2"/>
<path d="M689.16 313.224C689.16 313.224 686.764 307.952 678.137 307.473C669.51 306.994 662.8 312.266 662.8 312.266C662.8 312.266 670.469 311.787 673.823 313.225C677.178 314.663 681.492 317.539 681.492 317.539C681.492 317.539 678.616 319.935 676.699 324.728C674.782 329.521 671.906 338.627 671.906 338.627C671.906 338.627 681.012 331.917 683.409 327.604C685.805 323.29 689.16 320.894 689.16 320.894C689.16 320.894 690.598 326.166 689.639 330C688.681 333.834 688.201 339.586 688.201 339.586C688.201 339.586 697.787 336.231 695.869 324.249C693.953 312.266 689.16 313.224 689.16 313.224Z" fill="#FF9BD2"/>
<path d="M671.7 259.022C671.7 259.022 667.98 263.46 671.274 271.448C674.568 279.436 682.221 283.211 682.221 283.211C682.221 283.211 678.477 276.501 678.325 272.855C678.173 269.208 678.903 264.076 678.903 264.076C678.903 264.076 682.306 265.635 687.457 265.294C692.608 264.953 702.063 263.614 702.063 263.614C702.063 263.614 692.078 258.299 687.153 258C682.227 257.702 678.617 255.711 678.617 255.711C678.617 255.711 682.751 252.137 686.623 251.346C690.495 250.555 695.89 248.503 695.89 248.503C695.89 248.503 688.724 241.306 678.745 248.211C668.765 255.114 671.7 259.022 671.7 259.022Z" fill="#FF9BD2"/>
<path d="M684.641 293.052C684.641 293.052 680.921 297.49 684.215 305.478C687.509 313.466 695.162 317.241 695.162 317.241C695.162 317.241 691.418 310.531 691.266 306.885C691.114 303.238 691.845 298.106 691.845 298.106C691.845 298.106 695.248 299.665 700.399 299.324C705.55 298.983 715.005 297.644 715.005 297.644C715.005 297.644 705.02 292.329 700.095 292.03C695.169 291.732 691.559 289.741 691.559 289.741C691.559 289.741 695.693 286.167 699.565 285.376C703.437 284.585 708.832 282.533 708.832 282.533C708.832 282.533 701.666 275.336 691.687 282.241C681.706 289.143 684.641 293.052 684.641 293.052Z" fill="#FF9BD2"/>
<path d="M692.575 309.829C692.575 309.829 688.855 314.267 692.149 322.255C695.443 330.243 703.096 334.018 703.096 334.018C703.096 334.018 699.352 327.308 699.2 323.662C699.048 320.015 699.778 314.883 699.778 314.883C699.778 314.883 703.182 316.442 708.332 316.101C713.483 315.76 722.938 314.421 722.938 314.421C722.938 314.421 712.953 309.106 708.028 308.807C703.103 308.509 699.492 306.518 699.492 306.518C699.492 306.518 703.626 302.944 707.498 302.153C711.37 301.362 716.765 299.31 716.765 299.31C716.765 299.31 709.599 292.113 699.62 299.018C689.641 305.92 692.575 309.829 692.575 309.829Z" fill="#FF9BD2"/>
<path d="M673.766 252.352C673.766 252.352 678.957 249.785 679.155 241.147C679.353 232.509 673.865 225.974 673.865 225.974C673.865 225.974 674.594 233.623 673.266 237.023C671.938 240.423 669.204 244.828 669.204 244.828C669.204 244.828 666.715 242.032 661.863 240.272C657.01 238.512 647.815 235.934 647.815 235.934C647.815 235.934 654.818 244.817 659.207 247.072C663.596 249.327 666.101 252.602 666.101 252.602C666.101 252.602 660.879 254.211 657.015 253.377C653.152 252.544 647.388 252.252 647.388 252.252C647.388 252.252 651.053 261.723 662.967 259.417C674.88 257.112 673.766 252.352 673.766 252.352Z" fill="#FF9BD2"/>
<path d="M640.55 380.371C640.55 380.371 635.2 378.154 628.568 383.693C621.937 389.232 620.633 397.665 620.633 397.665C620.633 397.665 625.909 392.08 629.343 390.84C632.776 389.6 637.891 388.757 637.891 388.757C637.891 388.757 637.426 392.471 639.296 397.282C641.167 402.093 645.282 410.71 645.282 410.71C645.282 410.71 647.356 399.59 646.162 394.802C644.969 390.014 645.784 385.973 645.784 385.973C645.784 385.973 650.434 388.844 652.351 392.3C654.268 395.756 657.844 400.286 657.844 400.286C657.844 400.286 662.558 391.291 652.978 383.844C643.398 376.399 640.55 380.371 640.55 380.371Z" fill="#FF9BD2"/>
<path d="M692.284 349.505C692.284 349.505 697.475 346.938 697.673 338.3C697.871 329.662 692.383 323.127 692.383 323.127C692.383 323.127 693.112 330.776 691.784 334.176C690.456 337.576 687.722 341.981 687.722 341.981C687.722 341.981 685.233 339.185 680.381 337.425C675.528 335.665 666.333 333.087 666.333 333.087C666.333 333.087 673.336 341.97 677.725 344.225C682.114 346.48 684.619 349.755 684.619 349.755C684.619 349.755 679.397 351.364 675.533 350.531C671.67 349.698 665.906 349.406 665.906 349.406C665.906 349.406 669.571 358.877 681.485 356.571C693.398 354.264 692.284 349.505 692.284 349.505Z" fill="#FF9BD2"/>
<path d="M645.062 376.719C645.062 376.719 650.253 374.152 650.452 365.514C650.65 356.876 645.162 350.341 645.162 350.341C645.162 350.341 645.891 357.99 644.563 361.39C643.235 364.79 640.501 369.195 640.501 369.195C640.501 369.195 638.012 366.399 633.16 364.639C628.307 362.879 619.112 360.301 619.112 360.301C619.112 360.301 626.115 369.184 630.504 371.439C634.893 373.694 637.398 376.969 637.398 376.969C637.398 376.969 632.175 378.578 628.312 377.744C624.449 376.911 618.685 376.619 618.685 376.619C618.685 376.619 622.35 386.09 634.263 383.784C646.177 381.478 645.062 376.719 645.062 376.719Z" fill="#FF9BD2"/>
<path d="M670.054 415.047C670.054 415.047 668.534 419.637 673.55 424.823C678.566 430.009 685.669 430.582 685.669 430.582C685.669 430.582 680.697 426.528 679.455 423.744C678.214 420.96 677.2 416.752 677.2 416.752C677.2 416.752 680.322 416.914 684.214 415.063C688.107 413.212 695.033 409.261 695.033 409.261C695.033 409.261 685.646 408.21 681.731 409.496C677.816 410.781 674.401 410.348 674.401 410.348C674.401 410.348 676.509 406.301 679.271 404.494C682.033 402.687 685.588 399.434 685.588 399.434C685.588 399.434 677.81 396.055 672.191 404.487C666.573 412.917 670.054 415.047 670.054 415.047Z" fill="#FF9BD2"/>
<path d="M664.514 419.672C664.514 419.672 659.164 417.455 652.532 422.994C645.901 428.533 644.597 436.966 644.597 436.966C644.597 436.966 649.873 431.381 653.307 430.141C656.74 428.901 661.855 428.058 661.855 428.058C661.855 428.058 661.389 431.772 663.261 436.583C665.132 441.394 669.247 450.011 669.247 450.011C669.247 450.011 671.321 438.891 670.127 434.103C668.934 429.315 669.749 425.274 669.749 425.274C669.749 425.274 674.399 428.145 676.316 431.601C678.233 435.057 681.809 439.587 681.809 439.587C681.809 439.587 686.523 430.592 676.943 423.145C667.362 415.7 664.514 419.672 664.514 419.672Z" fill="#FF9BD2"/>
<path d="M669.026 416.02C669.026 416.02 674.217 413.453 674.416 404.815C674.614 396.177 669.126 389.642 669.126 389.642C669.126 389.642 669.855 397.291 668.527 400.691C667.199 404.091 664.465 408.496 664.465 408.496C664.465 408.496 661.976 405.7 657.124 403.94C652.271 402.18 643.076 399.602 643.076 399.602C643.076 399.602 650.079 408.485 654.468 410.74C658.857 412.995 661.362 416.27 661.362 416.27C661.362 416.27 656.14 417.879 652.276 417.045C648.413 416.212 642.649 415.92 642.649 415.92C642.649 415.92 646.314 425.391 658.227 423.085C670.141 420.78 669.026 416.02 669.026 416.02Z" fill="#FF9BD2"/>
<path d="M686.829 371.912C686.829 371.912 685.309 376.503 690.325 381.688C695.341 386.874 702.444 387.447 702.444 387.447C702.444 387.447 697.472 383.392 696.23 380.609C694.989 377.825 693.975 373.617 693.975 373.617C693.975 373.617 697.097 373.779 700.989 371.928C704.882 370.077 711.808 366.126 711.808 366.126C711.808 366.126 702.421 365.075 698.506 366.361C694.591 367.646 691.176 367.213 691.176 367.213C691.176 367.213 693.284 363.166 696.046 361.359C698.808 359.552 702.363 356.299 702.363 356.299C702.363 356.299 694.585 352.92 688.966 361.352C683.347 369.782 686.829 371.912 686.829 371.912Z" fill="#FF9BD2"/>
<path d="M681.289 376.537C681.289 376.537 675.939 374.321 669.307 379.86C662.676 385.399 661.372 393.832 661.372 393.832C661.372 393.832 666.648 388.247 670.082 387.007C673.515 385.767 678.63 384.924 678.63 384.924C678.63 384.924 678.164 388.638 680.036 393.449C681.907 398.26 686.022 406.877 686.022 406.877C686.022 406.877 688.096 395.757 686.902 390.969C685.709 386.181 686.524 382.14 686.524 382.14C686.524 382.14 691.174 385.011 693.091 388.467C695.008 391.923 698.584 396.453 698.584 396.453C698.584 396.453 703.298 387.458 693.718 380.011C684.137 372.564 681.289 376.537 681.289 376.537Z" fill="#FF9BD2"/>
<path d="M685.801 372.885C685.801 372.885 690.992 370.318 691.19 361.68C691.388 353.042 685.9 346.507 685.9 346.507C685.9 346.507 686.629 354.156 685.301 357.556C683.973 360.956 681.239 365.361 681.239 365.361C681.239 365.361 678.75 362.565 673.898 360.805C669.045 359.045 659.85 356.467 659.85 356.467C659.85 356.467 666.853 365.35 671.242 367.605C675.631 369.86 678.136 373.135 678.136 373.135C678.136 373.135 672.913 374.744 669.05 373.91C665.187 373.077 659.423 372.785 659.423 372.785C659.423 372.785 663.088 382.256 675.002 379.95C686.915 377.644 685.801 372.885 685.801 372.885Z" fill="#FF9BD2"/>
<path d="M714.62 389.576C714.62 389.576 719.811 387.009 720.009 378.371C720.207 369.733 714.719 363.198 714.719 363.198C714.719 363.198 715.448 370.847 714.12 374.247C712.792 377.647 710.059 382.052 710.059 382.052C710.059 382.052 707.57 379.256 702.717 377.496C697.864 375.736 688.669 373.158 688.669 373.158C688.669 373.158 695.672 382.041 700.061 384.296C704.45 386.551 706.955 389.826 706.955 389.826C706.955 389.826 701.732 391.435 697.869 390.601C694.006 389.768 688.242 389.476 688.242 389.476C688.242 389.476 691.907 398.947 703.82 396.641C715.734 394.336 714.62 389.576 714.62 389.576Z" fill="#FF9BD2"/>
<path d="M661.427 358.013C661.427 358.013 659.906 362.604 664.923 367.789C669.939 372.975 677.042 373.548 677.042 373.548C677.042 373.548 672.07 369.493 670.828 366.71C669.586 363.927 668.573 359.718 668.573 359.718C668.573 359.718 671.695 359.88 675.587 358.029C679.48 356.178 686.406 352.227 686.406 352.227C686.406 352.227 677.019 351.176 673.105 352.462C669.19 353.747 665.775 353.314 665.775 353.314C665.775 353.314 667.883 349.267 670.645 347.46C673.407 345.653 676.962 342.399 676.962 342.399C676.962 342.399 669.184 339.02 663.565 347.452C657.945 355.883 661.427 358.013 661.427 358.013Z" fill="#FF9BD2"/>
<path d="M655.887 362.638C655.887 362.638 650.537 360.421 643.906 365.96C637.275 371.499 635.971 379.932 635.971 379.932C635.971 379.932 641.247 374.347 644.681 373.107C648.114 371.867 653.229 371.024 653.229 371.024C653.229 371.024 652.763 374.738 654.634 379.549C656.505 384.36 660.62 392.977 660.62 392.977C660.62 392.977 662.694 381.857 661.5 377.069C660.306 372.281 661.122 368.24 661.122 368.24C661.122 368.24 665.772 371.111 667.689 374.567C669.606 378.023 673.182 382.553 673.182 382.553C673.182 382.553 677.896 373.558 668.316 366.111C658.735 358.665 655.887 362.638 655.887 362.638Z" fill="#FF9BD2"/>
<path d="M660.399 358.986C660.399 358.986 665.59 356.419 665.788 347.781C665.986 339.143 660.498 332.608 660.498 332.608C660.498 332.608 661.227 340.257 659.899 343.657C658.571 347.057 655.837 351.462 655.837 351.462C655.837 351.462 653.348 348.666 648.496 346.906C643.643 345.146 634.448 342.568 634.448 342.568C634.448 342.568 641.451 351.451 645.84 353.706C650.229 355.961 652.733 359.236 652.733 359.236C652.733 359.236 647.511 360.845 643.647 360.011C639.783 359.178 634.02 358.886 634.02 358.886C634.02 358.886 637.685 368.357 649.598 366.051C661.513 363.745 660.399 358.986 660.399 358.986Z" fill="#FF9BD2"/>
<path d="M691.288 403.204C691.288 403.204 686.53 402.339 682.096 408.031C677.662 413.723 678.086 420.835 678.086 420.835C678.086 420.835 681.406 415.345 683.989 413.727C686.572 412.109 690.598 410.518 690.598 410.518C690.598 410.518 690.874 413.632 693.25 417.228C695.626 420.824 700.506 427.131 700.506 427.131C700.506 427.131 700.236 417.69 698.416 413.993C696.596 410.296 696.549 406.854 696.549 406.854C696.549 406.854 700.851 408.376 703.026 410.859C705.201 413.341 708.919 416.407 708.919 416.407C708.919 416.407 711.178 408.233 702.045 403.847C692.911 399.459 691.288 403.204 691.288 403.204Z" fill="#FF9BD2"/>
<path d="M708.919 416.406C708.919 416.406 707.398 420.997 712.415 426.182C717.432 431.368 724.534 431.94 724.534 431.94C724.534 431.94 719.562 427.886 718.32 425.102C717.079 422.318 716.065 418.11 716.065 418.11C716.065 418.11 719.187 418.272 723.079 416.421C726.972 414.57 733.898 410.619 733.898 410.619C733.898 410.619 724.511 409.569 720.597 410.854C716.682 412.139 713.267 411.706 713.267 411.706C713.267 411.706 715.375 407.659 718.137 405.852C720.899 404.045 724.454 400.791 724.454 400.791C724.454 400.791 716.676 397.412 711.057 405.844C705.438 414.276 708.919 416.406 708.919 416.406Z" fill="#FF9BD2"/>
<path d="M703.379 421.031C703.379 421.031 698.029 418.815 691.397 424.354C684.766 429.893 683.462 438.326 683.462 438.326C683.462 438.326 688.738 432.741 692.172 431.501C695.605 430.261 700.72 429.418 700.72 429.418C700.72 429.418 700.254 433.132 702.125 437.943C703.996 442.754 708.111 451.372 708.111 451.372C708.111 451.372 710.185 440.252 708.991 435.464C707.797 430.676 708.613 426.635 708.613 426.635C708.613 426.635 713.263 429.506 715.18 432.962C717.097 436.418 720.673 440.948 720.673 440.948C720.673 440.948 725.387 431.953 715.807 424.506C706.227 417.059 703.379 421.031 703.379 421.031Z" fill="#FF9BD2"/>
<path d="M707.891 417.379C707.891 417.379 713.082 414.812 713.28 406.174C713.478 397.536 707.991 391.001 707.991 391.001C707.991 391.001 708.72 398.65 707.392 402.05C706.064 405.45 703.33 409.855 703.33 409.855C703.33 409.855 700.841 407.059 695.989 405.299C691.136 403.539 681.941 400.961 681.941 400.961C681.941 400.961 688.944 409.844 693.333 412.099C697.722 414.354 700.227 417.629 700.227 417.629C700.227 417.629 695.004 419.238 691.141 418.405C687.277 417.572 681.514 417.28 681.514 417.28C681.514 417.28 685.179 426.751 697.093 424.445C709.005 422.138 707.891 417.379 707.891 417.379Z" fill="#FF9BD2"/>
<path d="M609.365 388.682C609.365 388.682 604.607 387.817 600.173 393.509C595.739 399.2 596.163 406.313 596.163 406.313C596.163 406.313 599.483 400.823 602.067 399.205C604.65 397.587 608.676 395.996 608.676 395.996C608.676 395.996 608.952 399.11 611.328 402.706C613.704 406.302 618.584 412.609 618.584 412.609C618.584 412.609 618.313 403.168 616.494 399.471C614.675 395.774 614.627 392.332 614.627 392.332C614.627 392.332 618.929 393.854 621.103 396.337C623.278 398.819 626.996 401.885 626.996 401.885C626.996 401.885 629.256 393.711 620.122 389.325C610.988 384.937 609.365 388.682 609.365 388.682Z" fill="#FF9BD2"/>
<path d="M626.996 401.884C626.996 401.884 625.475 406.475 630.492 411.66C635.508 416.846 642.611 417.419 642.611 417.419C642.611 417.419 637.638 413.365 636.397 410.581C635.156 407.797 634.142 403.589 634.142 403.589C634.142 403.589 637.264 403.751 641.156 401.9C645.049 400.049 651.975 396.098 651.975 396.098C651.975 396.098 642.588 395.048 638.673 396.333C634.758 397.618 631.343 397.185 631.343 397.185C631.343 397.185 633.451 393.138 636.213 391.331C638.975 389.524 642.53 386.27 642.53 386.27C642.53 386.27 634.752 382.891 629.133 391.323C623.515 399.754 626.996 401.884 626.996 401.884Z" fill="#FF9BD2"/>
<path d="M621.456 406.509C621.456 406.509 616.106 404.292 609.475 409.832C602.844 415.371 601.54 423.804 601.54 423.804C601.54 423.804 606.816 418.219 610.25 416.979C613.683 415.74 618.798 414.896 618.798 414.896C618.798 414.896 618.332 418.61 620.204 423.421C622.075 428.232 626.19 436.85 626.19 436.85C626.19 436.85 628.264 425.73 627.07 420.942C625.876 416.154 626.692 412.113 626.692 412.113C626.692 412.113 631.342 414.984 633.259 418.44C635.176 421.896 638.752 426.426 638.752 426.426C638.752 426.426 643.466 417.431 633.886 409.984C624.304 402.536 621.456 406.509 621.456 406.509Z" fill="#FF9BD2"/>
<path d="M625.969 402.857C625.969 402.857 631.16 400.29 631.359 391.652C631.557 383.014 626.069 376.479 626.069 376.479C626.069 376.479 626.798 384.128 625.47 387.528C624.142 390.928 621.408 395.333 621.408 395.333C621.408 395.333 618.919 392.537 614.067 390.777C609.214 389.017 600.019 386.439 600.019 386.439C600.019 386.439 607.022 395.322 611.411 397.577C615.8 399.832 618.305 403.107 618.305 403.107C618.305 403.107 613.083 404.716 609.219 403.883C605.355 403.05 599.592 402.758 599.592 402.758C599.592 402.758 603.257 412.229 615.171 409.923C627.083 407.616 625.969 402.857 625.969 402.857Z" fill="#FF9BD2"/>
<path d="M639.096 390.745C639.096 390.745 634.338 389.88 629.904 395.572C625.47 401.263 625.894 408.376 625.894 408.376C625.894 408.376 629.214 402.886 631.798 401.268C634.381 399.65 638.407 398.059 638.407 398.059C638.407 398.059 638.683 401.172 641.059 404.769C643.435 408.365 648.315 414.672 648.315 414.672C648.315 414.672 648.045 405.231 646.225 401.534C644.406 397.837 644.358 394.395 644.358 394.395C644.358 394.395 648.66 395.917 650.835 398.4C653.01 400.882 656.728 403.948 656.728 403.948C656.728 403.948 658.987 395.774 649.854 391.388C640.719 387.001 639.096 390.745 639.096 390.745Z" fill="#FF9BD2"/>
<path d="M656.728 403.947C656.728 403.947 655.207 408.538 660.224 413.723C665.24 418.909 672.343 419.481 672.343 419.481C672.343 419.481 667.371 415.427 666.129 412.643C664.888 409.859 663.874 405.651 663.874 405.651C663.874 405.651 666.996 405.813 670.888 403.962C674.781 402.111 681.707 398.16 681.707 398.16C681.707 398.16 672.32 397.11 668.406 398.395C664.491 399.68 661.076 399.247 661.076 399.247C661.076 399.247 663.184 395.2 665.946 393.393C668.708 391.586 672.263 388.333 672.263 388.333C672.263 388.333 664.485 384.954 658.866 393.386C653.246 401.817 656.728 403.947 656.728 403.947Z" fill="#FF9BD2"/>
<path d="M651.188 408.572C651.188 408.572 645.838 406.356 639.206 411.895C632.575 417.434 631.271 425.867 631.271 425.867C631.271 425.867 636.547 420.282 639.981 419.042C643.414 417.802 648.529 416.959 648.529 416.959C648.529 416.959 648.064 420.673 649.935 425.484C651.806 430.295 655.921 438.913 655.921 438.913C655.921 438.913 657.995 427.793 656.801 423.005C655.608 418.217 656.423 414.176 656.423 414.176C656.423 414.176 661.073 417.047 662.99 420.503C664.907 423.959 668.483 428.489 668.483 428.489C668.483 428.489 673.197 419.494 663.617 412.047C654.035 404.6 651.188 408.572 651.188 408.572Z" fill="#FF9BD2"/>
<path d="M655.7 404.921C655.7 404.921 660.891 402.354 661.089 393.716C661.287 385.078 655.8 378.543 655.8 378.543C655.8 378.543 656.529 386.192 655.201 389.592C653.873 392.992 651.139 397.397 651.139 397.397C651.139 397.397 648.65 394.601 643.798 392.841C638.945 391.081 629.75 388.503 629.75 388.503C629.75 388.503 636.753 397.386 641.142 399.641C645.531 401.896 648.036 405.171 648.036 405.171C648.036 405.171 642.814 406.78 638.95 405.947C635.087 405.114 629.323 404.822 629.323 404.822C629.323 404.822 632.988 414.293 644.901 411.987C656.814 409.68 655.7 404.921 655.7 404.921Z" fill="#FF9BD2"/>
<path d="M674.38 426.682C674.38 426.682 669.622 425.817 665.188 431.509C660.754 437.2 661.178 444.313 661.178 444.313C661.178 444.313 664.498 438.823 667.082 437.205C669.665 435.587 673.691 433.996 673.691 433.996C673.691 433.996 673.967 437.11 676.343 440.706C678.719 444.302 683.599 450.609 683.599 450.609C683.599 450.609 683.328 441.167 681.509 437.47C679.69 433.773 679.642 430.331 679.642 430.331C679.642 430.331 683.944 431.853 686.118 434.336C688.293 436.818 692.011 439.884 692.011 439.884C692.011 439.884 694.27 431.71 685.137 427.324C676.003 422.937 674.38 426.682 674.38 426.682Z" fill="#FF9BD2"/>
<path d="M692.011 439.884C692.011 439.884 690.49 444.474 695.507 449.66C700.524 454.846 707.626 455.419 707.626 455.419C707.626 455.419 702.654 451.365 701.412 448.581C700.171 445.797 699.157 441.589 699.157 441.589C699.157 441.589 702.279 441.751 706.171 439.9C710.064 438.049 716.99 434.098 716.99 434.098C716.99 434.098 707.603 433.047 703.688 434.333C699.773 435.618 696.358 435.185 696.358 435.185C696.358 435.185 698.466 431.138 701.228 429.331C703.99 427.524 707.545 424.271 707.545 424.271C707.545 424.271 699.767 420.892 694.148 429.324C688.529 437.754 692.011 439.884 692.011 439.884Z" fill="#FF9BD2"/>
<path d="M685.72 437.756C685.72 437.756 680.37 435.539 673.739 441.078C667.108 446.617 665.803 455.05 665.803 455.05C665.803 455.05 671.08 449.465 674.513 448.225C677.946 446.985 683.061 446.142 683.061 446.142C683.061 446.142 682.596 449.856 684.467 454.667C686.338 459.478 690.453 468.095 690.453 468.095C690.453 468.095 692.527 456.975 691.333 452.187C690.139 447.399 690.955 443.358 690.955 443.358C690.955 443.358 695.605 446.229 697.522 449.685C699.439 453.141 703.015 457.671 703.015 457.671C703.015 457.671 707.729 448.676 698.149 441.229C688.568 433.783 685.72 437.756 685.72 437.756Z" fill="#FF9BD2"/>
<path d="M690.983 440.857C690.983 440.857 696.174 438.29 696.372 429.652C696.57 421.014 691.083 414.479 691.083 414.479C691.083 414.479 691.812 422.128 690.484 425.528C689.156 428.928 686.422 433.333 686.422 433.333C686.422 433.333 683.933 430.537 679.081 428.777C674.228 427.017 665.033 424.439 665.033 424.439C665.033 424.439 672.036 433.322 676.425 435.577C680.814 437.832 683.319 441.107 683.319 441.107C683.319 441.107 678.097 442.716 674.233 441.882C670.369 441.049 664.606 440.757 664.606 440.757C664.606 440.757 668.314 450.439 680.184 447.922C695.101 444.76 691.62 440.676 690.983 440.857Z" fill="#FF9BD2"/>
<path d="M656.813 437.687C656.813 437.687 655.744 440.916 659.272 444.563C662.801 448.21 667.796 448.613 667.796 448.613C667.796 448.613 664.298 445.761 663.425 443.803C662.552 441.845 661.839 438.885 661.839 438.885C661.839 438.885 664.035 438.999 666.773 437.697C669.511 436.395 674.383 433.616 674.383 433.616C674.383 433.616 667.78 432.877 665.027 433.781C662.273 434.685 659.871 434.38 659.871 434.38C659.871 434.38 661.354 431.533 663.296 430.263C665.239 428.992 667.739 426.704 667.739 426.704C667.739 426.704 662.268 424.327 658.316 430.258C654.364 436.188 656.813 437.687 656.813 437.687Z" fill="#FF9BD2"/>
<path d="M652.916 440.94C652.916 440.94 649.153 439.381 644.488 443.277C639.824 447.173 638.906 453.105 638.906 453.105C638.906 453.105 642.617 449.176 645.032 448.304C647.447 447.432 651.045 446.839 651.045 446.839C651.045 446.839 650.718 449.452 652.034 452.836C653.35 456.22 656.245 462.281 656.245 462.281C656.245 462.281 657.704 454.459 656.864 451.092C656.025 447.724 656.598 444.881 656.598 444.881C656.598 444.881 659.869 446.9 661.217 449.332C662.565 451.763 665.081 454.949 665.081 454.949C665.081 454.949 668.397 448.622 661.658 443.384C654.919 438.146 652.916 440.94 652.916 440.94Z" fill="#FF9BD2"/>
<path d="M656.09 438.371C656.09 438.371 659.742 436.565 659.881 430.489C660.02 424.413 656.16 419.817 656.16 419.817C656.16 419.817 656.673 425.197 655.738 427.589C654.804 429.981 652.881 433.079 652.881 433.079C652.881 433.079 651.13 431.112 647.717 429.874C644.303 428.636 637.836 426.823 637.836 426.823C637.836 426.823 642.762 433.071 645.849 434.657C648.936 436.243 650.698 438.547 650.698 438.547C650.698 438.547 647.024 439.679 644.307 439.092C641.59 438.506 637.535 438.301 637.535 438.301C637.535 438.301 640.113 444.963 648.493 443.341C656.874 441.719 656.09 438.371 656.09 438.371Z" fill="#FF9BD2"/>
<path d="M688.445 235.375C688.445 235.375 687.376 238.604 690.904 242.251C694.432 245.898 699.428 246.301 699.428 246.301C699.428 246.301 695.931 243.449 695.057 241.491C694.184 239.533 693.471 236.573 693.471 236.573C693.471 236.573 695.667 236.687 698.405 235.385C701.143 234.083 706.015 231.304 706.015 231.304C706.015 231.304 699.413 230.565 696.659 231.469C693.905 232.373 691.503 232.068 691.503 232.068C691.503 232.068 692.986 229.221 694.928 227.951C696.871 226.68 699.371 224.392 699.371 224.392C699.371 224.392 693.9 222.015 689.948 227.946C685.997 233.877 688.445 235.375 688.445 235.375Z" fill="#FF9BD2"/>
<path d="M684.548 238.628C684.548 238.628 680.785 237.069 676.12 240.965C671.456 244.861 670.538 250.793 670.538 250.793C670.538 250.793 674.249 246.864 676.664 245.992C679.079 245.12 682.677 244.527 682.677 244.527C682.677 244.527 682.35 247.14 683.666 250.524C684.982 253.908 687.877 259.969 687.877 259.969C687.877 259.969 689.336 252.147 688.496 248.78C687.657 245.412 688.23 242.57 688.23 242.57C688.23 242.57 691.501 244.589 692.849 247.021C694.197 249.452 696.713 252.638 696.713 252.638C696.713 252.638 700.029 246.311 693.29 241.073C686.552 235.834 684.548 238.628 684.548 238.628Z" fill="#FF9BD2"/>
<path d="M687.723 236.06C687.723 236.06 691.374 234.255 691.514 228.179C691.653 222.103 687.793 217.507 687.793 217.507C687.793 217.507 688.305 222.887 687.371 225.279C686.437 227.671 684.514 230.769 684.514 230.769C684.514 230.769 682.764 228.802 679.35 227.564C675.937 226.326 669.469 224.513 669.469 224.513C669.469 224.513 674.395 230.761 677.482 232.347C680.569 233.933 682.331 236.237 682.331 236.237C682.331 236.237 678.658 237.369 675.94 236.783C673.222 236.197 669.168 235.992 669.168 235.992C669.168 235.992 671.746 242.654 680.126 241.032C688.506 239.407 687.723 236.06 687.723 236.06Z" fill="#FF9BD2"/>
<path d="M714.979 321.206C714.979 321.206 713.91 324.435 717.438 328.082C720.967 331.729 725.962 332.132 725.962 332.132C725.962 332.132 722.465 329.28 721.591 327.322C720.718 325.364 720.005 322.404 720.005 322.404C720.005 322.404 722.201 322.518 724.939 321.216C727.677 319.914 732.549 317.135 732.549 317.135C732.549 317.135 725.947 316.396 723.193 317.3C720.439 318.204 718.037 317.899 718.037 317.899C718.037 317.899 719.52 315.053 721.462 313.782C723.404 312.511 725.905 310.223 725.905 310.223C725.905 310.223 720.434 307.846 716.482 313.777C712.53 319.707 714.979 321.206 714.979 321.206Z" fill="#FF9BD2"/>
<path d="M711.082 324.459C711.082 324.459 707.319 322.9 702.654 326.796C697.99 330.692 697.072 336.624 697.072 336.624C697.072 336.624 700.783 332.695 703.198 331.823C705.613 330.951 709.211 330.358 709.211 330.358C709.211 330.358 708.884 332.971 710.199 336.355C711.515 339.739 714.41 345.8 714.41 345.8C714.41 345.8 715.869 337.978 715.029 334.611C714.19 331.243 714.763 328.4 714.763 328.4C714.763 328.4 718.033 330.419 719.382 332.851C720.73 335.282 723.246 338.468 723.246 338.468C723.246 338.468 726.562 332.141 719.823 326.903C713.086 321.665 711.082 324.459 711.082 324.459Z" fill="#FF9BD2"/>
<path d="M714.256 321.89C714.256 321.89 717.907 320.084 718.047 314.008C718.186 307.932 714.326 303.336 714.326 303.336C714.326 303.336 714.839 308.716 713.905 311.108C712.971 313.5 711.048 316.598 711.048 316.598C711.048 316.598 709.298 314.631 705.884 313.393C702.471 312.155 696.003 310.342 696.003 310.342C696.003 310.342 700.929 316.59 704.016 318.176C707.103 319.762 708.865 322.066 708.865 322.066C708.865 322.066 705.191 323.198 702.474 322.612C699.757 322.026 695.702 321.821 695.702 321.821C695.702 321.821 698.28 328.483 706.66 326.861C715.04 325.238 714.256 321.89 714.256 321.89Z" fill="#FF9BD2"/>
<g opacity="0.3">
<path d="M662.914 128.808C670.763 100.116 653.867 70.4927 625.175 62.643C596.483 54.7933 566.86 71.6893 559.011 100.381C551.161 129.073 568.057 158.696 596.749 166.546C625.441 174.396 655.064 157.5 662.914 128.808Z" stroke="black" stroke-miterlimit="10" stroke-linecap="round" stroke-linejoin="round"/>
<path d="M628.815 156.416C651.897 146.536 662.599 119.815 652.719 96.7336C642.839 73.6518 616.118 62.9496 593.037 72.8296C569.955 82.7096 559.253 109.43 569.133 132.512C579.013 155.594 605.733 166.296 628.815 156.416Z" stroke="black" stroke-miterlimit="10" stroke-linecap="round" stroke-linejoin="round"/>
<path d="M590.224 114.616H610.939L625.735 86.8" stroke="black" stroke-miterlimit="10" stroke-linecap="round" stroke-linejoin="round"/>
</g>
<path d="M30.567 468.096H722.503" stroke="#263238" stroke-miterlimit="10"/>
</svg>
